<svg width="24" height="24" viewBox="0 0 24 24" fill="none" xmlns="http://www.w3.org/2000/svg">
<circle cx="12" cy="12" r="12" fill="#F24783"/>
<path d="M8.9458 12.3105H7.24512V11.3481H8.9458V9.63428H9.9082V11.3481H11.6089V12.3105H9.9082V14.0024H8.9458V12.3105ZM16.8516 15H12.3604V14.0552L13.9731 12.4248C14.4507 11.9355 14.7627 11.5972 14.9092 11.4097C15.0557 11.2192 15.1611 11.0435 15.2256 10.8823C15.29 10.7212 15.3223 10.5542 15.3223 10.3813C15.3223 10.1235 15.2505 9.93164 15.1069 9.80566C14.9663 9.67969 14.7773 9.6167 14.54 9.6167C14.291 9.6167 14.0493 9.67383 13.8149 9.78809C13.5806 9.90234 13.3359 10.0649 13.0811 10.2759L12.3428 9.40137C12.6592 9.13184 12.9214 8.94141 13.1294 8.83008C13.3374 8.71875 13.5645 8.63379 13.8105 8.5752C14.0566 8.51367 14.332 8.48291 14.6367 8.48291C15.0381 8.48291 15.3926 8.55615 15.7002 8.70264C16.0078 8.84912 16.2466 9.0542 16.4165 9.31787C16.5864 9.58154 16.6714 9.8833 16.6714 10.2231C16.6714 10.519 16.6187 10.7974 16.5132 11.0581C16.4106 11.3159 16.2495 11.5811 16.0298 11.8535C15.813 12.126 15.4292 12.5142 14.8784 13.0181L14.0522 13.7959V13.8574H16.8516V15Z" fill="white"/>
</svg>
