<svg width="399" height="380" viewBox="0 0 399 380" fill="none" xmlns="http://www.w3.org/2000/svg">
<g filter="url(#filter0_dd)">
<rect x="44" y="30" width="147" height="138" rx="20" fill="white"/>
<path d="M104.909 90.1812L129.271 65.8188" stroke="#60BBE5" stroke-width="2" stroke-miterlimit="10" stroke-linecap="round" stroke-linejoin="round"/>
<path d="M126.488 86.0267H126.516" stroke="#60BBE5" stroke-width="2" stroke-miterlimit="10" stroke-linecap="round" stroke-linejoin="round"/>
<path d="M107.678 69.9471V69.9195" stroke="#60BBE5" stroke-width="2" stroke-miterlimit="10" stroke-linecap="round" stroke-linejoin="round"/>
<path d="M141.385 72.6489C141.769 74.4022 141.963 76.1917 141.963 77.9866C141.963 84.5834 139.343 90.91 134.678 95.5747C130.013 100.239 123.687 102.86 117.09 102.86C110.493 102.86 104.167 100.239 99.5019 95.5747C94.8372 90.91 92.2166 84.5834 92.2166 77.9866C92.2166 71.3898 94.8372 65.0631 99.5019 60.3985C104.167 55.7338 110.493 53.1132 117.09 53.1132C121.506 53.1119 125.843 54.287 129.655 56.5177C133.467 58.7484 136.615 61.9542 138.777 65.8054" stroke="#60BBE5" stroke-width="2" stroke-miterlimit="10" stroke-linecap="round" stroke-linejoin="round"/>
<path d="M85.8974 72.2724C86.6369 70.9951 87.3494 69.7985 87.7394 68.5078" stroke="#60BBE5" stroke-width="2" stroke-miterlimit="10" stroke-linecap="round" stroke-linejoin="round"/>
<path d="M94.8921 100.91L94.7308 100.843H94.7173C92.8485 100.023 90.9258 99.176 89.8368 97.6163C88.7612 96.0836 88.5864 94.0131 88.4116 91.835V91.8215C88.2906 90.3695 88.1696 88.8502 87.7394 87.4922C87.336 86.2015 86.6369 85.0049 85.8974 83.7276" stroke="#60BBE5" stroke-width="2" stroke-miterlimit="10" stroke-linecap="round" stroke-linejoin="round"/>
<path d="M91.1813 58.3702C92.2704 56.8106 94.193 55.9635 96.0753 55.1434C97.2988 54.6056 98.6971 53.9871 99.7861 53.167C100.848 52.3603 101.776 51.2443 102.663 50.1687L102.704 50.1284L102.717 50.1149C104.048 48.515 105.406 46.8478 107.181 46.2562M112.841 46.6461L112.882 46.6596C114.266 46.9957 115.692 47.3318 117.09 47.3318C118.488 47.3318 119.913 46.9822 121.298 46.6596L121.339 46.6461C122.643 46.3369 123.987 46.0008 125.251 46.0008C125.839 45.9909 126.425 46.0772 126.985 46.2562C128.76 46.8612 130.132 48.515 131.463 50.1149L131.476 50.1284C132.377 51.2174 133.291 52.3334 134.394 53.167C135.442 53.9602 136.706 54.5249 137.943 55.0762L138.105 55.1434H138.118C139.987 55.9635 141.91 56.8106 142.999 58.3702C144.074 59.903 144.249 61.9735 144.424 64.1516V64.165C144.545 65.6305 144.666 67.1364 145.096 68.4943C145.499 69.7851 146.198 70.9817 146.938 72.259C148 74.0875 149.103 75.9698 149.103 77.9866C149.103 80.0033 148 81.8856 146.925 83.7142C146.185 84.9914 145.472 86.188 145.083 87.4788C144.652 88.8367 144.531 90.3426 144.41 91.8081C144.236 93.9996 144.061 96.0702 142.985 97.6163C141.91 99.1625 139.973 100.023 138.105 100.843H138.091C136.868 101.381 135.469 101.999 134.38 102.82C133.318 103.626 132.39 104.742 131.503 105.818L131.463 105.872C130.145 107.472 128.774 109.139 126.985 109.744C126.425 109.923 125.839 110.009 125.251 109.999C124.001 109.999 122.643 109.677 121.339 109.354L121.298 109.34C119.913 109.004 118.488 108.668 117.09 108.668C115.692 108.668 114.266 109.018 112.882 109.34L112.841 109.354C111.537 109.663 110.193 109.999 108.929 109.999H108.848C108.282 109.997 107.719 109.907 107.181 109.73C105.393 109.125 104.035 107.472 102.704 105.858" stroke="#60BBE5" stroke-width="2" stroke-miterlimit="10" stroke-linecap="round" stroke-linejoin="round"/>
<path d="M86.6504 128.635C86.6504 130.045 86.248 131.125 85.4434 131.875C84.6426 132.625 83.4844 133 81.9688 133H79.543V124.434H82.2324C83.6309 124.434 84.7168 124.803 85.4902 125.541C86.2637 126.279 86.6504 127.311 86.6504 128.635ZM84.7637 128.682C84.7637 126.842 83.9512 125.922 82.3262 125.922H81.3594V131.5H82.1387C83.8887 131.5 84.7637 130.561 84.7637 128.682ZM90.998 127.598C90.6191 127.598 90.3223 127.719 90.1074 127.961C89.8926 128.199 89.7695 128.539 89.7383 128.98H92.2461C92.2383 128.539 92.123 128.199 91.9004 127.961C91.6777 127.719 91.377 127.598 90.998 127.598ZM91.25 133.117C90.1953 133.117 89.3711 132.826 88.7773 132.244C88.1836 131.662 87.8867 130.838 87.8867 129.771C87.8867 128.674 88.1602 127.826 88.707 127.229C89.2578 126.627 90.0176 126.326 90.9863 126.326C91.9121 126.326 92.6328 126.59 93.1484 127.117C93.6641 127.645 93.9219 128.373 93.9219 129.303V130.17H89.6973C89.7168 130.678 89.8672 131.074 90.1484 131.359C90.4297 131.645 90.8242 131.787 91.332 131.787C91.7266 131.787 92.0996 131.746 92.4512 131.664C92.8027 131.582 93.1699 131.451 93.5527 131.271V132.654C93.2402 132.811 92.9062 132.926 92.5508 133C92.1953 133.078 91.7617 133.117 91.25 133.117ZM99.9453 131.055C99.9453 131.727 99.7109 132.238 99.2422 132.59C98.7773 132.941 98.0801 133.117 97.1504 133.117C96.6738 133.117 96.2676 133.084 95.9316 133.018C95.5957 132.955 95.2812 132.861 94.9883 132.736V131.26C95.3203 131.416 95.6934 131.547 96.1074 131.652C96.5254 131.758 96.8926 131.811 97.209 131.811C97.8574 131.811 98.1816 131.623 98.1816 131.248C98.1816 131.107 98.1387 130.994 98.0527 130.908C97.9668 130.818 97.8184 130.719 97.6074 130.609C97.3965 130.496 97.1152 130.365 96.7637 130.217C96.2598 130.006 95.8887 129.811 95.6504 129.631C95.416 129.451 95.2441 129.246 95.1348 129.016C95.0293 128.781 94.9766 128.494 94.9766 128.154C94.9766 127.572 95.2012 127.123 95.6504 126.807C96.1035 126.486 96.7441 126.326 97.5723 126.326C98.3613 126.326 99.1289 126.498 99.875 126.842L99.3359 128.131C99.0078 127.99 98.7012 127.875 98.416 127.785C98.1309 127.695 97.8398 127.65 97.543 127.65C97.0156 127.65 96.752 127.793 96.752 128.078C96.752 128.238 96.8359 128.377 97.0039 128.494C97.1758 128.611 97.5488 128.785 98.123 129.016C98.6348 129.223 99.0098 129.416 99.248 129.596C99.4863 129.775 99.6621 129.982 99.7754 130.217C99.8887 130.451 99.9453 130.73 99.9453 131.055ZM104 133.117C101.961 133.117 100.941 131.998 100.941 129.76C100.941 128.646 101.219 127.797 101.773 127.211C102.328 126.621 103.123 126.326 104.158 126.326C104.916 126.326 105.596 126.475 106.197 126.771L105.67 128.154C105.389 128.041 105.127 127.949 104.885 127.879C104.643 127.805 104.4 127.768 104.158 127.768C103.229 127.768 102.764 128.428 102.764 129.748C102.764 131.029 103.229 131.67 104.158 131.67C104.502 131.67 104.82 131.625 105.113 131.535C105.406 131.441 105.699 131.297 105.992 131.102V132.631C105.703 132.814 105.41 132.941 105.113 133.012C104.82 133.082 104.449 133.117 104 133.117ZM108.939 129.713C108.939 130.361 109.045 130.852 109.256 131.184C109.471 131.516 109.818 131.682 110.299 131.682C110.775 131.682 111.117 131.518 111.324 131.189C111.535 130.857 111.641 130.365 111.641 129.713C111.641 129.064 111.535 128.578 111.324 128.254C111.113 127.93 110.768 127.768 110.287 127.768C109.811 127.768 109.467 127.93 109.256 128.254C109.045 128.574 108.939 129.061 108.939 129.713ZM113.469 129.713C113.469 130.779 113.188 131.613 112.625 132.215C112.062 132.816 111.279 133.117 110.275 133.117C109.646 133.117 109.092 132.98 108.611 132.707C108.131 132.43 107.762 132.033 107.504 131.518C107.246 131.002 107.117 130.4 107.117 129.713C107.117 128.643 107.396 127.811 107.955 127.217C108.514 126.623 109.299 126.326 110.311 126.326C110.939 126.326 111.494 126.463 111.975 126.736C112.455 127.01 112.824 127.402 113.082 127.914C113.34 128.426 113.469 129.025 113.469 129.713ZM120.992 133H119.205V129.174C119.205 128.701 119.121 128.348 118.953 128.113C118.785 127.875 118.518 127.756 118.15 127.756C117.65 127.756 117.289 127.924 117.066 128.26C116.844 128.592 116.732 129.145 116.732 129.918V133H114.945V126.449H116.311L116.551 127.287H116.65C116.85 126.971 117.123 126.732 117.471 126.572C117.822 126.408 118.221 126.326 118.666 126.326C119.428 126.326 120.006 126.533 120.4 126.947C120.795 127.357 120.992 127.951 120.992 128.729V133ZM125.592 131.693C125.904 131.693 126.279 131.625 126.717 131.488V132.818C126.271 133.018 125.725 133.117 125.076 133.117C124.361 133.117 123.84 132.938 123.512 132.578C123.188 132.215 123.025 131.672 123.025 130.949V127.791H122.17V127.035L123.154 126.438L123.67 125.055H124.812V126.449H126.646V127.791H124.812V130.949C124.812 131.203 124.883 131.391 125.023 131.512C125.168 131.633 125.357 131.693 125.592 131.693ZM129.471 129.713C129.471 130.361 129.576 130.852 129.787 131.184C130.002 131.516 130.35 131.682 130.83 131.682C131.307 131.682 131.648 131.518 131.855 131.189C132.066 130.857 132.172 130.365 132.172 129.713C132.172 129.064 132.066 128.578 131.855 128.254C131.645 127.93 131.299 127.768 130.818 127.768C130.342 127.768 129.998 127.93 129.787 128.254C129.576 128.574 129.471 129.061 129.471 129.713ZM134 129.713C134 130.779 133.719 131.613 133.156 132.215C132.594 132.816 131.811 133.117 130.807 133.117C130.178 133.117 129.623 132.98 129.143 132.707C128.662 132.43 128.293 132.033 128.035 131.518C127.777 131.002 127.648 130.4 127.648 129.713C127.648 128.643 127.928 127.811 128.486 127.217C129.045 126.623 129.83 126.326 130.842 126.326C131.471 126.326 132.025 126.463 132.506 126.736C132.986 127.01 133.355 127.402 133.613 127.914C133.871 128.426 134 129.025 134 129.713ZM141.307 127.598C140.928 127.598 140.631 127.719 140.416 127.961C140.201 128.199 140.078 128.539 140.047 128.98H142.555C142.547 128.539 142.432 128.199 142.209 127.961C141.986 127.719 141.686 127.598 141.307 127.598ZM141.559 133.117C140.504 133.117 139.68 132.826 139.086 132.244C138.492 131.662 138.195 130.838 138.195 129.771C138.195 128.674 138.469 127.826 139.016 127.229C139.566 126.627 140.326 126.326 141.295 126.326C142.221 126.326 142.941 126.59 143.457 127.117C143.973 127.645 144.23 128.373 144.23 129.303V130.17H140.006C140.025 130.678 140.176 131.074 140.457 131.359C140.738 131.645 141.133 131.787 141.641 131.787C142.035 131.787 142.408 131.746 142.76 131.664C143.111 131.582 143.479 131.451 143.861 131.271V132.654C143.549 132.811 143.215 132.926 142.859 133C142.504 133.078 142.07 133.117 141.559 133.117ZM151.549 133H149.762V129.174C149.762 128.701 149.682 128.348 149.521 128.113C149.365 127.875 149.117 127.756 148.777 127.756C148.32 127.756 147.988 127.924 147.781 128.26C147.574 128.596 147.471 129.148 147.471 129.918V133H145.684V126.449H147.049L147.289 127.287H147.389C147.564 126.986 147.818 126.752 148.15 126.584C148.482 126.412 148.863 126.326 149.293 126.326C150.273 126.326 150.938 126.646 151.285 127.287H151.443C151.619 126.982 151.877 126.746 152.217 126.578C152.561 126.41 152.947 126.326 153.377 126.326C154.119 126.326 154.68 126.518 155.059 126.9C155.441 127.279 155.633 127.889 155.633 128.729V133H153.84V129.174C153.84 128.701 153.76 128.348 153.6 128.113C153.443 127.875 153.195 127.756 152.855 127.756C152.418 127.756 152.09 127.912 151.871 128.225C151.656 128.537 151.549 129.033 151.549 129.713V133ZM98.7207 147.055C98.7207 147.727 98.4863 148.238 98.0176 148.59C97.5527 148.941 96.8555 149.117 95.9258 149.117C95.4492 149.117 95.043 149.084 94.707 149.018C94.3711 148.955 94.0566 148.861 93.7637 148.736V147.26C94.0957 147.416 94.4688 147.547 94.8828 147.652C95.3008 147.758 95.668 147.811 95.9844 147.811C96.6328 147.811 96.957 147.623 96.957 147.248C96.957 147.107 96.9141 146.994 96.8281 146.908C96.7422 146.818 96.5938 146.719 96.3828 146.609C96.1719 146.496 95.8906 146.365 95.5391 146.217C95.0352 146.006 94.6641 145.811 94.4258 145.631C94.1914 145.451 94.0195 145.246 93.9102 145.016C93.8047 144.781 93.752 144.494 93.752 144.154C93.752 143.572 93.9766 143.123 94.4258 142.807C94.8789 142.486 95.5195 142.326 96.3477 142.326C97.1367 142.326 97.9043 142.498 98.6504 142.842L98.1113 144.131C97.7832 143.99 97.4766 143.875 97.1914 143.785C96.9062 143.695 96.6152 143.65 96.3184 143.65C95.791 143.65 95.5273 143.793 95.5273 144.078C95.5273 144.238 95.6113 144.377 95.7793 144.494C95.9512 144.611 96.3242 144.785 96.8984 145.016C97.4102 145.223 97.7852 145.416 98.0234 145.596C98.2617 145.775 98.4375 145.982 98.5508 146.217C98.6641 146.451 98.7207 146.73 98.7207 147.055ZM102.828 143.598C102.449 143.598 102.152 143.719 101.938 143.961C101.723 144.199 101.6 144.539 101.568 144.98H104.076C104.068 144.539 103.953 144.199 103.73 143.961C103.508 143.719 103.207 143.598 102.828 143.598ZM103.08 149.117C102.025 149.117 101.201 148.826 100.607 148.244C100.014 147.662 99.7168 146.838 99.7168 145.771C99.7168 144.674 99.9902 143.826 100.537 143.229C101.088 142.627 101.848 142.326 102.816 142.326C103.742 142.326 104.463 142.59 104.979 143.117C105.494 143.645 105.752 144.373 105.752 145.303V146.17H101.527C101.547 146.678 101.697 147.074 101.979 147.359C102.26 147.645 102.654 147.787 103.162 147.787C103.557 147.787 103.93 147.746 104.281 147.664C104.633 147.582 105 147.451 105.383 147.271V148.654C105.07 148.811 104.736 148.926 104.381 149C104.025 149.078 103.592 149.117 103.08 149.117ZM110.861 142.326C111.104 142.326 111.305 142.344 111.465 142.379L111.33 144.055C111.186 144.016 111.01 143.996 110.803 143.996C110.232 143.996 109.787 144.143 109.467 144.436C109.15 144.729 108.992 145.139 108.992 145.666V149H107.205V142.449H108.559L108.822 143.551H108.91C109.113 143.184 109.387 142.889 109.73 142.666C110.078 142.439 110.455 142.326 110.861 142.326ZM114.213 149L111.717 142.449H113.586L114.852 146.182C114.992 146.654 115.08 147.102 115.115 147.523H115.15C115.17 147.148 115.258 146.701 115.414 146.182L116.674 142.449H118.543L116.047 149H114.213ZM119.41 140.756C119.41 140.174 119.734 139.883 120.383 139.883C121.031 139.883 121.355 140.174 121.355 140.756C121.355 141.033 121.273 141.25 121.109 141.406C120.949 141.559 120.707 141.635 120.383 141.635C119.734 141.635 119.41 141.342 119.41 140.756ZM121.273 149H119.486V142.449H121.273V149ZM125.814 149.117C123.775 149.117 122.756 147.998 122.756 145.76C122.756 144.646 123.033 143.797 123.588 143.211C124.143 142.621 124.938 142.326 125.973 142.326C126.73 142.326 127.41 142.475 128.012 142.771L127.484 144.154C127.203 144.041 126.941 143.949 126.699 143.879C126.457 143.805 126.215 143.768 125.973 143.768C125.043 143.768 124.578 144.428 124.578 145.748C124.578 147.029 125.043 147.67 125.973 147.67C126.316 147.67 126.635 147.625 126.928 147.535C127.221 147.441 127.514 147.297 127.807 147.102V148.631C127.518 148.814 127.225 148.941 126.928 149.012C126.635 149.082 126.264 149.117 125.814 149.117ZM126.934 150.465C126.934 150.965 126.785 151.326 126.488 151.549C126.195 151.771 125.74 151.883 125.123 151.883C124.818 151.883 124.533 151.842 124.268 151.76V150.775C124.373 150.803 124.514 150.83 124.689 150.857C124.869 150.885 125.008 150.898 125.105 150.898C125.387 150.898 125.527 150.777 125.527 150.535C125.527 150.211 125.203 150 124.555 149.902L125.012 149H126.143L125.984 149.357C126.273 149.451 126.504 149.596 126.676 149.791C126.848 149.99 126.934 150.215 126.934 150.465ZM130.754 145.713C130.754 146.361 130.859 146.852 131.07 147.184C131.285 147.516 131.633 147.682 132.113 147.682C132.59 147.682 132.932 147.518 133.139 147.189C133.35 146.857 133.455 146.365 133.455 145.713C133.455 145.064 133.35 144.578 133.139 144.254C132.928 143.93 132.582 143.768 132.102 143.768C131.625 143.768 131.281 143.93 131.07 144.254C130.859 144.574 130.754 145.061 130.754 145.713ZM135.283 145.713C135.283 146.779 135.002 147.613 134.439 148.215C133.877 148.816 133.094 149.117 132.09 149.117C131.461 149.117 130.906 148.98 130.426 148.707C129.945 148.43 129.576 148.033 129.318 147.518C129.061 147.002 128.932 146.4 128.932 145.713C128.932 144.643 129.211 143.811 129.77 143.217C130.328 142.623 131.113 142.326 132.125 142.326C132.754 142.326 133.309 142.463 133.789 142.736C134.27 143.01 134.639 143.402 134.896 143.914C135.154 144.426 135.283 145.025 135.283 145.713ZM141.33 147.055C141.33 147.727 141.096 148.238 140.627 148.59C140.162 148.941 139.465 149.117 138.535 149.117C138.059 149.117 137.652 149.084 137.316 149.018C136.98 148.955 136.666 148.861 136.373 148.736V147.26C136.705 147.416 137.078 147.547 137.492 147.652C137.91 147.758 138.277 147.811 138.594 147.811C139.242 147.811 139.566 147.623 139.566 147.248C139.566 147.107 139.523 146.994 139.438 146.908C139.352 146.818 139.203 146.719 138.992 146.609C138.781 146.496 138.5 146.365 138.148 146.217C137.645 146.006 137.273 145.811 137.035 145.631C136.801 145.451 136.629 145.246 136.52 145.016C136.414 144.781 136.361 144.494 136.361 144.154C136.361 143.572 136.586 143.123 137.035 142.807C137.488 142.486 138.129 142.326 138.957 142.326C139.746 142.326 140.514 142.498 141.26 142.842L140.721 144.131C140.393 143.99 140.086 143.875 139.801 143.785C139.516 143.695 139.225 143.65 138.928 143.65C138.4 143.65 138.137 143.793 138.137 144.078C138.137 144.238 138.221 144.377 138.389 144.494C138.561 144.611 138.934 144.785 139.508 145.016C140.02 145.223 140.395 145.416 140.633 145.596C140.871 145.775 141.047 145.982 141.16 146.217C141.273 146.451 141.33 146.73 141.33 147.055Z" fill="#666666"/>
</g>
<g filter="url(#filter1_dd)">
<rect x="207" y="30" width="148" height="138" rx="20" fill="white"/>
<path d="M266.359 87.4153L267.75 97.649H302.33" stroke="#60BBE5" stroke-width="2" stroke-miterlimit="10" stroke-linecap="round" stroke-linejoin="round"/>
<path d="M254.328 57.2767H262.261L265.297 79.6108" stroke="#60BBE5" stroke-width="2" stroke-miterlimit="10" stroke-linecap="round" stroke-linejoin="round"/>
<path d="M273.317 91.8478H267.102" stroke="#60BBE5" stroke-width="2" stroke-miterlimit="10" stroke-linecap="round" stroke-linejoin="round"/>
<path d="M263.987 66.3351H307.672L304.304 91.8478H285.829" stroke="#60BBE5" stroke-width="2" stroke-miterlimit="10" stroke-linecap="round" stroke-linejoin="round"/>
<path d="M273.317 110C275.522 110 277.31 108.212 277.31 106.007C277.31 103.802 275.522 102.015 273.317 102.015C271.112 102.015 269.324 103.802 269.324 106.007C269.324 108.212 271.112 110 273.317 110Z" stroke="#60BBE5" stroke-width="2" stroke-miterlimit="10" stroke-linecap="round" stroke-linejoin="round"/>
<path d="M296.979 110C299.184 110 300.972 108.212 300.972 106.007C300.972 103.802 299.184 102.015 296.979 102.015C294.774 102.015 292.986 103.802 292.986 106.007C292.986 108.212 294.774 110 296.979 110Z" stroke="#60BBE5" stroke-width="2" stroke-miterlimit="10" stroke-linecap="round" stroke-linejoin="round"/>
<path d="M280.365 62.6296L291.294 51.7002" stroke="#60BBE5" stroke-width="2" stroke-miterlimit="10" stroke-linecap="round" stroke-linejoin="round"/>
<path d="M290.045 60.7661H290.057" stroke="#60BBE5" stroke-width="2" stroke-miterlimit="10" stroke-linecap="round" stroke-linejoin="round"/>
<path d="M281.606 53.5519V53.54" stroke="#60BBE5" stroke-width="2" stroke-miterlimit="10" stroke-linecap="round" stroke-linejoin="round"/>
<path d="M276.101 62.6317C275.161 60.9611 274.669 59.0755 274.673 57.1584C274.673 55.693 274.961 54.2419 275.522 52.888C276.082 51.534 276.904 50.3038 277.941 49.2676C278.977 48.2314 280.207 47.4095 281.561 46.8488C282.915 46.2881 284.366 45.9997 285.831 46C287.813 45.9994 289.758 46.5266 291.468 47.5273C292.793 48.3024 293.939 49.3398 294.839 50.571" stroke="#60BBE5" stroke-width="2" stroke-miterlimit="10" stroke-linecap="round" stroke-linejoin="round"/>
<path d="M296.728 54.7637C296.901 55.5503 296.988 56.3532 296.988 57.1584C296.991 59.075 296.498 60.9598 295.557 62.6296" stroke="#60BBE5" stroke-width="2" stroke-miterlimit="10" stroke-linecap="round" stroke-linejoin="round"/>
<path d="M250.15 128.635C250.15 130.045 249.748 131.125 248.943 131.875C248.143 132.625 246.984 133 245.469 133H243.043V124.434H245.732C247.131 124.434 248.217 124.803 248.99 125.541C249.764 126.279 250.15 127.311 250.15 128.635ZM248.264 128.682C248.264 126.842 247.451 125.922 245.826 125.922H244.859V131.5H245.639C247.389 131.5 248.264 130.561 248.264 128.682ZM254.498 127.598C254.119 127.598 253.822 127.719 253.607 127.961C253.393 128.199 253.27 128.539 253.238 128.98H255.746C255.738 128.539 255.623 128.199 255.4 127.961C255.178 127.719 254.877 127.598 254.498 127.598ZM254.75 133.117C253.695 133.117 252.871 132.826 252.277 132.244C251.684 131.662 251.387 130.838 251.387 129.771C251.387 128.674 251.66 127.826 252.207 127.229C252.758 126.627 253.518 126.326 254.486 126.326C255.412 126.326 256.133 126.59 256.648 127.117C257.164 127.645 257.422 128.373 257.422 129.303V130.17H253.197C253.217 130.678 253.367 131.074 253.648 131.359C253.93 131.645 254.324 131.787 254.832 131.787C255.227 131.787 255.6 131.746 255.951 131.664C256.303 131.582 256.67 131.451 257.053 131.271V132.654C256.74 132.811 256.406 132.926 256.051 133C255.695 133.078 255.262 133.117 254.75 133.117ZM263.445 131.055C263.445 131.727 263.211 132.238 262.742 132.59C262.277 132.941 261.58 133.117 260.65 133.117C260.174 133.117 259.768 133.084 259.432 133.018C259.096 132.955 258.781 132.861 258.488 132.736V131.26C258.82 131.416 259.193 131.547 259.607 131.652C260.025 131.758 260.393 131.811 260.709 131.811C261.357 131.811 261.682 131.623 261.682 131.248C261.682 131.107 261.639 130.994 261.553 130.908C261.467 130.818 261.318 130.719 261.107 130.609C260.896 130.496 260.615 130.365 260.264 130.217C259.76 130.006 259.389 129.811 259.15 129.631C258.916 129.451 258.744 129.246 258.635 129.016C258.529 128.781 258.477 128.494 258.477 128.154C258.477 127.572 258.701 127.123 259.15 126.807C259.604 126.486 260.244 126.326 261.072 126.326C261.861 126.326 262.629 126.498 263.375 126.842L262.836 128.131C262.508 127.99 262.201 127.875 261.916 127.785C261.631 127.695 261.34 127.65 261.043 127.65C260.516 127.65 260.252 127.793 260.252 128.078C260.252 128.238 260.336 128.377 260.504 128.494C260.676 128.611 261.049 128.785 261.623 129.016C262.135 129.223 262.51 129.416 262.748 129.596C262.986 129.775 263.162 129.982 263.275 130.217C263.389 130.451 263.445 130.73 263.445 131.055ZM267.5 133.117C265.461 133.117 264.441 131.998 264.441 129.76C264.441 128.646 264.719 127.797 265.273 127.211C265.828 126.621 266.623 126.326 267.658 126.326C268.416 126.326 269.096 126.475 269.697 126.771L269.17 128.154C268.889 128.041 268.627 127.949 268.385 127.879C268.143 127.805 267.9 127.768 267.658 127.768C266.729 127.768 266.264 128.428 266.264 129.748C266.264 131.029 266.729 131.67 267.658 131.67C268.002 131.67 268.32 131.625 268.613 131.535C268.906 131.441 269.199 131.297 269.492 131.102V132.631C269.203 132.814 268.91 132.941 268.613 133.012C268.32 133.082 267.949 133.117 267.5 133.117ZM272.439 129.713C272.439 130.361 272.545 130.852 272.756 131.184C272.971 131.516 273.318 131.682 273.799 131.682C274.275 131.682 274.617 131.518 274.824 131.189C275.035 130.857 275.141 130.365 275.141 129.713C275.141 129.064 275.035 128.578 274.824 128.254C274.613 127.93 274.268 127.768 273.787 127.768C273.311 127.768 272.967 127.93 272.756 128.254C272.545 128.574 272.439 129.061 272.439 129.713ZM276.969 129.713C276.969 130.779 276.688 131.613 276.125 132.215C275.562 132.816 274.779 133.117 273.775 133.117C273.146 133.117 272.592 132.98 272.111 132.707C271.631 132.43 271.262 132.033 271.004 131.518C270.746 131.002 270.617 130.4 270.617 129.713C270.617 128.643 270.896 127.811 271.455 127.217C272.014 126.623 272.799 126.326 273.811 126.326C274.439 126.326 274.994 126.463 275.475 126.736C275.955 127.01 276.324 127.402 276.582 127.914C276.84 128.426 276.969 129.025 276.969 129.713ZM284.492 133H282.705V129.174C282.705 128.701 282.621 128.348 282.453 128.113C282.285 127.875 282.018 127.756 281.65 127.756C281.15 127.756 280.789 127.924 280.566 128.26C280.344 128.592 280.232 129.145 280.232 129.918V133H278.445V126.449H279.811L280.051 127.287H280.15C280.35 126.971 280.623 126.732 280.971 126.572C281.322 126.408 281.721 126.326 282.166 126.326C282.928 126.326 283.506 126.533 283.9 126.947C284.295 127.357 284.492 127.951 284.492 128.729V133ZM289.092 131.693C289.404 131.693 289.779 131.625 290.217 131.488V132.818C289.771 133.018 289.225 133.117 288.576 133.117C287.861 133.117 287.34 132.938 287.012 132.578C286.688 132.215 286.525 131.672 286.525 130.949V127.791H285.67V127.035L286.654 126.438L287.17 125.055H288.312V126.449H290.146V127.791H288.312V130.949C288.312 131.203 288.383 131.391 288.523 131.512C288.668 131.633 288.857 131.693 289.092 131.693ZM292.971 129.713C292.971 130.361 293.076 130.852 293.287 131.184C293.502 131.516 293.85 131.682 294.33 131.682C294.807 131.682 295.148 131.518 295.355 131.189C295.566 130.857 295.672 130.365 295.672 129.713C295.672 129.064 295.566 128.578 295.355 128.254C295.145 127.93 294.799 127.768 294.318 127.768C293.842 127.768 293.498 127.93 293.287 128.254C293.076 128.574 292.971 129.061 292.971 129.713ZM297.5 129.713C297.5 130.779 297.219 131.613 296.656 132.215C296.094 132.816 295.311 133.117 294.307 133.117C293.678 133.117 293.123 132.98 292.643 132.707C292.162 132.43 291.793 132.033 291.535 131.518C291.277 131.002 291.148 130.4 291.148 129.713C291.148 128.643 291.428 127.811 291.986 127.217C292.545 126.623 293.33 126.326 294.342 126.326C294.971 126.326 295.525 126.463 296.006 126.736C296.486 127.01 296.855 127.402 297.113 127.914C297.371 128.426 297.5 129.025 297.5 129.713ZM304.807 127.598C304.428 127.598 304.131 127.719 303.916 127.961C303.701 128.199 303.578 128.539 303.547 128.98H306.055C306.047 128.539 305.932 128.199 305.709 127.961C305.486 127.719 305.186 127.598 304.807 127.598ZM305.059 133.117C304.004 133.117 303.18 132.826 302.586 132.244C301.992 131.662 301.695 130.838 301.695 129.771C301.695 128.674 301.969 127.826 302.516 127.229C303.066 126.627 303.826 126.326 304.795 126.326C305.721 126.326 306.441 126.59 306.957 127.117C307.473 127.645 307.73 128.373 307.73 129.303V130.17H303.506C303.525 130.678 303.676 131.074 303.957 131.359C304.238 131.645 304.633 131.787 305.141 131.787C305.535 131.787 305.908 131.746 306.26 131.664C306.611 131.582 306.979 131.451 307.361 131.271V132.654C307.049 132.811 306.715 132.926 306.359 133C306.004 133.078 305.57 133.117 305.059 133.117ZM315.049 133H313.262V129.174C313.262 128.701 313.182 128.348 313.021 128.113C312.865 127.875 312.617 127.756 312.277 127.756C311.82 127.756 311.488 127.924 311.281 128.26C311.074 128.596 310.971 129.148 310.971 129.918V133H309.184V126.449H310.549L310.789 127.287H310.889C311.064 126.986 311.318 126.752 311.65 126.584C311.982 126.412 312.363 126.326 312.793 126.326C313.773 126.326 314.438 126.646 314.785 127.287H314.943C315.119 126.982 315.377 126.746 315.717 126.578C316.061 126.41 316.447 126.326 316.877 126.326C317.619 126.326 318.18 126.518 318.559 126.9C318.941 127.279 319.133 127.889 319.133 128.729V133H317.34V129.174C317.34 128.701 317.26 128.348 317.1 128.113C316.943 127.875 316.695 127.756 316.355 127.756C315.918 127.756 315.59 127.912 315.371 128.225C315.156 128.537 315.049 129.033 315.049 129.713V133ZM258.254 149.117C257.484 149.117 256.881 148.838 256.443 148.279H256.35C256.412 148.826 256.443 149.143 256.443 149.229V151.883H254.656V142.449H256.109L256.361 143.299H256.443C256.861 142.65 257.48 142.326 258.301 142.326C259.074 142.326 259.68 142.625 260.117 143.223C260.555 143.82 260.773 144.65 260.773 145.713C260.773 146.412 260.67 147.02 260.463 147.535C260.26 148.051 259.969 148.443 259.59 148.713C259.211 148.982 258.766 149.117 258.254 149.117ZM257.727 143.756C257.285 143.756 256.963 143.893 256.76 144.166C256.557 144.436 256.451 144.883 256.443 145.508V145.701C256.443 146.404 256.547 146.908 256.754 147.213C256.965 147.518 257.297 147.67 257.75 147.67C258.551 147.67 258.951 147.01 258.951 145.689C258.951 145.045 258.852 144.562 258.652 144.242C258.457 143.918 258.148 143.756 257.727 143.756ZM265.906 142.326C266.148 142.326 266.35 142.344 266.51 142.379L266.375 144.055C266.23 144.016 266.055 143.996 265.848 143.996C265.277 143.996 264.832 144.143 264.512 144.436C264.195 144.729 264.037 145.139 264.037 145.666V149H262.25V142.449H263.604L263.867 143.551H263.955C264.158 143.184 264.432 142.889 264.775 142.666C265.123 142.439 265.5 142.326 265.906 142.326ZM269.123 145.713C269.123 146.361 269.229 146.852 269.439 147.184C269.654 147.516 270.002 147.682 270.482 147.682C270.959 147.682 271.301 147.518 271.508 147.189C271.719 146.857 271.824 146.365 271.824 145.713C271.824 145.064 271.719 144.578 271.508 144.254C271.297 143.93 270.951 143.768 270.471 143.768C269.994 143.768 269.65 143.93 269.439 144.254C269.229 144.574 269.123 145.061 269.123 145.713ZM273.652 145.713C273.652 146.779 273.371 147.613 272.809 148.215C272.246 148.816 271.463 149.117 270.459 149.117C269.83 149.117 269.275 148.98 268.795 148.707C268.314 148.43 267.945 148.033 267.688 147.518C267.43 147.002 267.301 146.4 267.301 145.713C267.301 144.643 267.58 143.811 268.139 143.217C268.697 142.623 269.482 142.326 270.494 142.326C271.123 142.326 271.678 142.463 272.158 142.736C272.639 143.01 273.008 143.402 273.266 143.914C273.523 144.426 273.652 145.025 273.652 145.713ZM277.203 149.117C276.434 149.117 275.828 148.818 275.387 148.221C274.949 147.623 274.73 146.795 274.73 145.736C274.73 144.662 274.953 143.826 275.398 143.229C275.848 142.627 276.465 142.326 277.25 142.326C278.074 142.326 278.703 142.646 279.137 143.287H279.195C279.105 142.799 279.061 142.363 279.061 141.98V139.883H280.854V149H279.482L279.137 148.15H279.061C278.654 148.795 278.035 149.117 277.203 149.117ZM277.83 147.693C278.287 147.693 278.621 147.561 278.832 147.295C279.047 147.029 279.164 146.578 279.184 145.941V145.748C279.184 145.045 279.074 144.541 278.855 144.236C278.641 143.932 278.289 143.779 277.801 143.779C277.402 143.779 277.092 143.949 276.869 144.289C276.65 144.625 276.541 145.115 276.541 145.76C276.541 146.404 276.652 146.889 276.875 147.213C277.098 147.533 277.416 147.693 277.83 147.693ZM287.363 149L287.123 148.162H287.029C286.838 148.467 286.566 148.703 286.215 148.871C285.863 149.035 285.463 149.117 285.014 149.117C284.244 149.117 283.664 148.912 283.273 148.502C282.883 148.088 282.688 147.494 282.688 146.721V142.449H284.475V146.275C284.475 146.748 284.559 147.104 284.727 147.342C284.895 147.576 285.162 147.693 285.529 147.693C286.029 147.693 286.391 147.527 286.613 147.195C286.836 146.859 286.947 146.305 286.947 145.531V142.449H288.734V149H287.363ZM293.369 147.693C293.682 147.693 294.057 147.625 294.494 147.488V148.818C294.049 149.018 293.502 149.117 292.854 149.117C292.139 149.117 291.617 148.938 291.289 148.578C290.965 148.215 290.803 147.672 290.803 146.949V143.791H289.947V143.035L290.932 142.438L291.447 141.055H292.59V142.449H294.424V143.791H292.59V146.949C292.59 147.203 292.66 147.391 292.801 147.512C292.945 147.633 293.135 147.693 293.369 147.693ZM297.248 145.713C297.248 146.361 297.354 146.852 297.564 147.184C297.779 147.516 298.127 147.682 298.607 147.682C299.084 147.682 299.426 147.518 299.633 147.189C299.844 146.857 299.949 146.365 299.949 145.713C299.949 145.064 299.844 144.578 299.633 144.254C299.422 143.93 299.076 143.768 298.596 143.768C298.119 143.768 297.775 143.93 297.564 144.254C297.354 144.574 297.248 145.061 297.248 145.713ZM301.777 145.713C301.777 146.779 301.496 147.613 300.934 148.215C300.371 148.816 299.588 149.117 298.584 149.117C297.955 149.117 297.4 148.98 296.92 148.707C296.439 148.43 296.07 148.033 295.812 147.518C295.555 147.002 295.426 146.4 295.426 145.713C295.426 144.643 295.705 143.811 296.264 143.217C296.822 142.623 297.607 142.326 298.619 142.326C299.248 142.326 299.803 142.463 300.283 142.736C300.764 143.01 301.133 143.402 301.391 143.914C301.648 144.426 301.777 145.025 301.777 145.713ZM307.824 147.055C307.824 147.727 307.59 148.238 307.121 148.59C306.656 148.941 305.959 149.117 305.029 149.117C304.553 149.117 304.146 149.084 303.811 149.018C303.475 148.955 303.16 148.861 302.867 148.736V147.26C303.199 147.416 303.572 147.547 303.986 147.652C304.404 147.758 304.771 147.811 305.088 147.811C305.736 147.811 306.061 147.623 306.061 147.248C306.061 147.107 306.018 146.994 305.932 146.908C305.846 146.818 305.697 146.719 305.486 146.609C305.275 146.496 304.994 146.365 304.643 146.217C304.139 146.006 303.768 145.811 303.529 145.631C303.295 145.451 303.123 145.246 303.014 145.016C302.908 144.781 302.855 144.494 302.855 144.154C302.855 143.572 303.08 143.123 303.529 142.807C303.982 142.486 304.623 142.326 305.451 142.326C306.24 142.326 307.008 142.498 307.754 142.842L307.215 144.131C306.887 143.99 306.58 143.875 306.295 143.785C306.01 143.695 305.719 143.65 305.422 143.65C304.895 143.65 304.631 143.793 304.631 144.078C304.631 144.238 304.715 144.377 304.883 144.494C305.055 144.611 305.428 144.785 306.002 145.016C306.514 145.223 306.889 145.416 307.127 145.596C307.365 145.775 307.541 145.982 307.654 146.217C307.768 146.451 307.824 146.73 307.824 147.055Z" fill="#666666"/>
</g>
<g filter="url(#filter2_dd)">
<rect x="44" y="184" width="147" height="138" rx="20" fill="white"/>
<path d="M128.873 250.689C131.479 247.925 133.201 244.765 133.926 241.366C134.118 240.488 134.209 239.592 134.198 238.693C134.198 234.026 130.369 230.231 125.679 230.231C124.103 230.23 122.548 230.587 121.131 231.276C119.714 231.965 118.472 232.967 117.5 234.207C116.528 232.967 115.286 231.965 113.869 231.276C112.452 230.587 110.897 230.23 109.321 230.231C104.62 230.231 100.802 234.026 100.791 238.693C100.789 239.592 100.884 240.488 101.074 241.366C102.128 246.294 105.266 250.712 110.137 254.145C113.784 256.716 117.092 257.826 117.228 257.871C117.401 257.928 117.588 257.928 117.761 257.871C118.659 257.556 119.537 257.186 120.389 256.761M124.376 254.473C124.535 254.36 124.693 254.258 124.863 254.145L124.376 254.473Z" stroke="#60BBE5" stroke-width="2" stroke-miterlimit="10" stroke-linecap="round" stroke-linejoin="round"/>
<path d="M134.775 206C133.874 206 133.01 206.358 132.372 206.995C131.735 207.633 131.377 208.497 131.377 209.398V214.326H103.623V209.398C103.623 208.497 103.265 207.633 102.628 206.995C101.99 206.358 101.126 206 100.225 206C99.3233 206 98.4589 206.358 97.8216 206.995C97.1842 207.633 96.8262 208.497 96.8262 209.398V214.326H91.6152C91.2061 214.326 90.8008 214.406 90.4227 214.563C90.0446 214.719 89.7011 214.949 89.4118 215.238C89.1224 215.527 88.893 215.871 88.7365 216.249C88.5801 216.627 88.4997 217.032 88.5 217.441V260.885C88.4997 261.294 88.5801 261.699 88.7365 262.077C88.893 262.455 89.1224 262.799 89.4118 263.088C89.7011 263.378 90.0446 263.607 90.4227 263.763C90.8008 263.92 91.2061 264 91.6152 264H143.385C143.794 264 144.199 263.92 144.577 263.763C144.955 263.607 145.299 263.378 145.588 263.088C145.878 262.799 146.107 262.455 146.263 262.077C146.42 261.699 146.5 261.294 146.5 260.885V217.441C146.5 217.032 146.42 216.627 146.263 216.249C146.107 215.871 145.878 215.527 145.588 215.238C145.299 214.949 144.955 214.719 144.577 214.563C144.199 214.406 143.794 214.326 143.385 214.326H138.174V209.398C138.174 208.497 137.816 207.633 137.178 206.995C136.541 206.358 135.677 206 134.775 206Z" stroke="#60BBE5" stroke-width="2" stroke-miterlimit="10" stroke-linecap="round" stroke-linejoin="round"/>
<path d="M89.5535 224.261H128.873" stroke="#60BBE5" stroke-width="2" stroke-miterlimit="10" stroke-linecap="round" stroke-linejoin="round"/>
<path d="M134.775 224.261H145.129" stroke="#60BBE5" stroke-width="2" stroke-miterlimit="10" stroke-linecap="round" stroke-linejoin="round"/>
<path d="M76.7363 278.434H79.4023C80.6172 278.434 81.498 278.607 82.0449 278.955C82.5957 279.299 82.8711 279.848 82.8711 280.602C82.8711 281.113 82.75 281.533 82.5078 281.861C82.2695 282.189 81.9512 282.387 81.5527 282.453V282.512C82.0957 282.633 82.4863 282.859 82.7246 283.191C82.9668 283.523 83.0879 283.965 83.0879 284.516C83.0879 285.297 82.8047 285.906 82.2383 286.344C81.6758 286.781 80.9102 287 79.9414 287H76.7363V278.434ZM78.5527 281.826H79.6074C80.0996 281.826 80.4551 281.75 80.6738 281.598C80.8965 281.445 81.0078 281.193 81.0078 280.842C81.0078 280.514 80.8867 280.279 80.6445 280.139C80.4062 279.994 80.0273 279.922 79.5078 279.922H78.5527V281.826ZM78.5527 283.268V285.5H79.7363C80.2363 285.5 80.6055 285.404 80.8438 285.213C81.082 285.021 81.2012 284.729 81.2012 284.334C81.2012 283.623 80.6934 283.268 79.6777 283.268H78.5527ZM87.3711 281.598C86.9922 281.598 86.6953 281.719 86.4805 281.961C86.2656 282.199 86.1426 282.539 86.1113 282.98H88.6191C88.6113 282.539 88.4961 282.199 88.2734 281.961C88.0508 281.719 87.75 281.598 87.3711 281.598ZM87.623 287.117C86.5684 287.117 85.7441 286.826 85.1504 286.244C84.5566 285.662 84.2598 284.838 84.2598 283.771C84.2598 282.674 84.5332 281.826 85.0801 281.229C85.6309 280.627 86.3906 280.326 87.3594 280.326C88.2852 280.326 89.0059 280.59 89.5215 281.117C90.0371 281.645 90.2949 282.373 90.2949 283.303V284.17H86.0703C86.0898 284.678 86.2402 285.074 86.5215 285.359C86.8027 285.645 87.1973 285.787 87.7051 285.787C88.0996 285.787 88.4727 285.746 88.8242 285.664C89.1758 285.582 89.543 285.451 89.9258 285.271V286.654C89.6133 286.811 89.2793 286.926 88.9238 287C88.5684 287.078 88.1348 287.117 87.623 287.117ZM97.7949 287H96.0078V283.174C96.0078 282.701 95.9238 282.348 95.7559 282.113C95.5879 281.875 95.3203 281.756 94.9531 281.756C94.4531 281.756 94.0918 281.924 93.8691 282.26C93.6465 282.592 93.5352 283.145 93.5352 283.918V287H91.748V280.449H93.1133L93.3535 281.287H93.4531C93.6523 280.971 93.9258 280.732 94.2734 280.572C94.625 280.408 95.0234 280.326 95.4688 280.326C96.2305 280.326 96.8086 280.533 97.2031 280.947C97.5977 281.357 97.7949 281.951 97.7949 282.729V287ZM102.348 281.598C101.969 281.598 101.672 281.719 101.457 281.961C101.242 282.199 101.119 282.539 101.088 282.98H103.596C103.588 282.539 103.473 282.199 103.25 281.961C103.027 281.719 102.727 281.598 102.348 281.598ZM102.6 287.117C101.545 287.117 100.721 286.826 100.127 286.244C99.5332 285.662 99.2363 284.838 99.2363 283.771C99.2363 282.674 99.5098 281.826 100.057 281.229C100.607 280.627 101.367 280.326 102.336 280.326C103.262 280.326 103.982 280.59 104.498 281.117C105.014 281.645 105.271 282.373 105.271 283.303V284.17H101.047C101.066 284.678 101.217 285.074 101.498 285.359C101.779 285.645 102.174 285.787 102.682 285.787C103.076 285.787 103.449 285.746 103.801 285.664C104.152 285.582 104.52 285.451 104.902 285.271V286.654C104.59 286.811 104.256 286.926 103.9 287C103.545 287.078 103.111 287.117 102.6 287.117ZM110.346 281.791H108.799V287H107.012V281.791H106.027V280.93L107.012 280.449V279.969C107.012 279.223 107.195 278.678 107.562 278.334C107.93 277.99 108.518 277.818 109.326 277.818C109.943 277.818 110.492 277.91 110.973 278.094L110.516 279.406C110.156 279.293 109.824 279.236 109.52 279.236C109.266 279.236 109.082 279.312 108.969 279.465C108.855 279.613 108.799 279.805 108.799 280.039V280.449H110.346V281.791ZM113.164 287H111.377V280.449H113.164V287ZM111.289 279.729V279.57C111.961 278.789 112.42 278.201 112.666 277.807H114.67V277.93C114.467 278.133 114.119 278.436 113.627 278.838C113.139 279.236 112.756 279.533 112.479 279.729H111.289ZM117.705 287.117C115.666 287.117 114.646 285.998 114.646 283.76C114.646 282.646 114.924 281.797 115.479 281.211C116.033 280.621 116.828 280.326 117.863 280.326C118.621 280.326 119.301 280.475 119.902 280.771L119.375 282.154C119.094 282.041 118.832 281.949 118.59 281.879C118.348 281.805 118.105 281.768 117.863 281.768C116.934 281.768 116.469 282.428 116.469 283.748C116.469 285.029 116.934 285.67 117.863 285.67C118.207 285.67 118.525 285.625 118.818 285.535C119.111 285.441 119.404 285.297 119.697 285.102V286.631C119.408 286.814 119.115 286.941 118.818 287.012C118.525 287.082 118.154 287.117 117.705 287.117ZM121.145 278.756C121.145 278.174 121.469 277.883 122.117 277.883C122.766 277.883 123.09 278.174 123.09 278.756C123.09 279.033 123.008 279.25 122.844 279.406C122.684 279.559 122.441 279.635 122.117 279.635C121.469 279.635 121.145 279.342 121.145 278.756ZM123.008 287H121.221V280.449H123.008V287ZM126.312 283.713C126.312 284.361 126.418 284.852 126.629 285.184C126.844 285.516 127.191 285.682 127.672 285.682C128.148 285.682 128.49 285.518 128.697 285.189C128.908 284.857 129.014 284.365 129.014 283.713C129.014 283.064 128.908 282.578 128.697 282.254C128.486 281.93 128.141 281.768 127.66 281.768C127.184 281.768 126.84 281.93 126.629 282.254C126.418 282.574 126.312 283.061 126.312 283.713ZM130.842 283.713C130.842 284.779 130.561 285.613 129.998 286.215C129.436 286.816 128.652 287.117 127.648 287.117C127.02 287.117 126.465 286.98 125.984 286.707C125.504 286.43 125.135 286.033 124.877 285.518C124.619 285.002 124.49 284.4 124.49 283.713C124.49 282.643 124.77 281.811 125.328 281.217C125.887 280.623 126.672 280.326 127.684 280.326C128.312 280.326 128.867 280.463 129.348 280.736C129.828 281.01 130.197 281.402 130.455 281.914C130.713 282.426 130.842 283.025 130.842 283.713ZM136.889 285.055C136.889 285.727 136.654 286.238 136.186 286.59C135.721 286.941 135.023 287.117 134.094 287.117C133.617 287.117 133.211 287.084 132.875 287.018C132.539 286.955 132.225 286.861 131.932 286.736V285.26C132.264 285.416 132.637 285.547 133.051 285.652C133.469 285.758 133.836 285.811 134.152 285.811C134.801 285.811 135.125 285.623 135.125 285.248C135.125 285.107 135.082 284.994 134.996 284.908C134.91 284.818 134.762 284.719 134.551 284.609C134.34 284.496 134.059 284.365 133.707 284.217C133.203 284.006 132.832 283.811 132.594 283.631C132.359 283.451 132.188 283.246 132.078 283.016C131.973 282.781 131.92 282.494 131.92 282.154C131.92 281.572 132.145 281.123 132.594 280.807C133.047 280.486 133.688 280.326 134.516 280.326C135.305 280.326 136.072 280.498 136.818 280.842L136.279 282.131C135.951 281.99 135.645 281.875 135.359 281.785C135.074 281.695 134.783 281.65 134.486 281.65C133.959 281.65 133.695 281.793 133.695 282.078C133.695 282.238 133.779 282.377 133.947 282.494C134.119 282.611 134.492 282.785 135.066 283.016C135.578 283.223 135.953 283.416 136.191 283.596C136.43 283.775 136.605 283.982 136.719 284.217C136.832 284.451 136.889 284.73 136.889 285.055ZM144.113 281.598C143.734 281.598 143.438 281.719 143.223 281.961C143.008 282.199 142.885 282.539 142.854 282.98H145.361C145.354 282.539 145.238 282.199 145.016 281.961C144.793 281.719 144.492 281.598 144.113 281.598ZM144.365 287.117C143.311 287.117 142.486 286.826 141.893 286.244C141.299 285.662 141.002 284.838 141.002 283.771C141.002 282.674 141.275 281.826 141.822 281.229C142.373 280.627 143.133 280.326 144.102 280.326C145.027 280.326 145.748 280.59 146.264 281.117C146.779 281.645 147.037 282.373 147.037 283.303V284.17H142.812C142.832 284.678 142.982 285.074 143.264 285.359C143.545 285.645 143.939 285.787 144.447 285.787C144.842 285.787 145.215 285.746 145.566 285.664C145.918 285.582 146.285 285.451 146.668 285.271V286.654C146.355 286.811 146.021 286.926 145.666 287C145.311 287.078 144.877 287.117 144.365 287.117ZM154.355 287H152.568V283.174C152.568 282.701 152.488 282.348 152.328 282.113C152.172 281.875 151.924 281.756 151.584 281.756C151.127 281.756 150.795 281.924 150.588 282.26C150.381 282.596 150.277 283.148 150.277 283.918V287H148.49V280.449H149.855L150.096 281.287H150.195C150.371 280.986 150.625 280.752 150.957 280.584C151.289 280.412 151.67 280.326 152.1 280.326C153.08 280.326 153.744 280.646 154.092 281.287H154.25C154.426 280.982 154.684 280.746 155.023 280.578C155.367 280.41 155.754 280.326 156.184 280.326C156.926 280.326 157.486 280.518 157.865 280.9C158.248 281.279 158.439 281.889 158.439 282.729V287H156.646V283.174C156.646 282.701 156.566 282.348 156.406 282.113C156.25 281.875 156.002 281.756 155.662 281.756C155.225 281.756 154.896 281.912 154.678 282.225C154.463 282.537 154.355 283.033 154.355 283.713V287ZM90.6992 303L90.3535 302.109H90.3066C90.0059 302.488 89.6953 302.752 89.375 302.9C89.0586 303.045 88.6445 303.117 88.1328 303.117C87.5039 303.117 87.0078 302.938 86.6445 302.578C86.2852 302.219 86.1055 301.707 86.1055 301.043C86.1055 300.348 86.3477 299.836 86.832 299.508C87.3203 299.176 88.0547 298.992 89.0352 298.957L90.1719 298.922V298.635C90.1719 297.971 89.832 297.639 89.1523 297.639C88.6289 297.639 88.0137 297.797 87.3066 298.113L86.7148 296.906C87.4688 296.512 88.3047 296.314 89.2227 296.314C90.1016 296.314 90.7754 296.506 91.2441 296.889C91.7129 297.271 91.9473 297.854 91.9473 298.635V303H90.6992ZM90.1719 299.965L89.4805 299.988C88.9609 300.004 88.5742 300.098 88.3203 300.27C88.0664 300.441 87.9395 300.703 87.9395 301.055C87.9395 301.559 88.2285 301.811 88.8066 301.811C89.2207 301.811 89.5508 301.691 89.7969 301.453C90.0469 301.215 90.1719 300.898 90.1719 300.504V299.965ZM98.3633 301.055C98.3633 301.727 98.1289 302.238 97.6602 302.59C97.1953 302.941 96.498 303.117 95.5684 303.117C95.0918 303.117 94.6855 303.084 94.3496 303.018C94.0137 302.955 93.6992 302.861 93.4062 302.736V301.26C93.7383 301.416 94.1113 301.547 94.5254 301.652C94.9434 301.758 95.3105 301.811 95.627 301.811C96.2754 301.811 96.5996 301.623 96.5996 301.248C96.5996 301.107 96.5566 300.994 96.4707 300.908C96.3848 300.818 96.2363 300.719 96.0254 300.609C95.8145 300.496 95.5332 300.365 95.1816 300.217C94.6777 300.006 94.3066 299.811 94.0684 299.631C93.834 299.451 93.6621 299.246 93.5527 299.016C93.4473 298.781 93.3945 298.494 93.3945 298.154C93.3945 297.572 93.6191 297.123 94.0684 296.807C94.5215 296.486 95.1621 296.326 95.9902 296.326C96.7793 296.326 97.5469 296.498 98.293 296.842L97.7539 298.131C97.4258 297.99 97.1191 297.875 96.834 297.785C96.5488 297.695 96.2578 297.65 95.9609 297.65C95.4336 297.65 95.1699 297.793 95.1699 298.078C95.1699 298.238 95.2539 298.377 95.4219 298.494C95.5938 298.611 95.9668 298.785 96.541 299.016C97.0527 299.223 97.4277 299.416 97.666 299.596C97.9043 299.775 98.0801 299.982 98.1934 300.217C98.3066 300.451 98.3633 300.73 98.3633 301.055ZM104.328 301.055C104.328 301.727 104.094 302.238 103.625 302.59C103.16 302.941 102.463 303.117 101.533 303.117C101.057 303.117 100.65 303.084 100.314 303.018C99.9785 302.955 99.6641 302.861 99.3711 302.736V301.26C99.7031 301.416 100.076 301.547 100.49 301.652C100.908 301.758 101.275 301.811 101.592 301.811C102.24 301.811 102.564 301.623 102.564 301.248C102.564 301.107 102.521 300.994 102.436 300.908C102.35 300.818 102.201 300.719 101.99 300.609C101.779 300.496 101.498 300.365 101.146 300.217C100.643 300.006 100.271 299.811 100.033 299.631C99.7988 299.451 99.627 299.246 99.5176 299.016C99.4121 298.781 99.3594 298.494 99.3594 298.154C99.3594 297.572 99.584 297.123 100.033 296.807C100.486 296.486 101.127 296.326 101.955 296.326C102.744 296.326 103.512 296.498 104.258 296.842L103.719 298.131C103.391 297.99 103.084 297.875 102.799 297.785C102.514 297.695 102.223 297.65 101.926 297.65C101.398 297.65 101.135 297.793 101.135 298.078C101.135 298.238 101.219 298.377 101.387 298.494C101.559 298.611 101.932 298.785 102.506 299.016C103.018 299.223 103.393 299.416 103.631 299.596C103.869 299.775 104.045 299.982 104.158 300.217C104.271 300.451 104.328 300.73 104.328 301.055ZM105.646 294.756C105.646 294.174 105.971 293.883 106.619 293.883C107.268 293.883 107.592 294.174 107.592 294.756C107.592 295.033 107.51 295.25 107.346 295.406C107.186 295.559 106.943 295.635 106.619 295.635C105.971 295.635 105.646 295.342 105.646 294.756ZM107.51 303H105.723V296.449H107.51V303ZM115.438 303H113.65V299.174C113.65 298.701 113.566 298.348 113.398 298.113C113.23 297.875 112.963 297.756 112.596 297.756C112.096 297.756 111.734 297.924 111.512 298.26C111.289 298.592 111.178 299.145 111.178 299.918V303H109.391V296.449H110.756L110.996 297.287H111.096C111.295 296.971 111.568 296.732 111.916 296.572C112.268 296.408 112.666 296.326 113.111 296.326C113.873 296.326 114.451 296.533 114.846 296.947C115.24 297.357 115.438 297.951 115.438 298.729V303ZM121.438 303L121.092 302.109H121.045C120.744 302.488 120.434 302.752 120.113 302.9C119.797 303.045 119.383 303.117 118.871 303.117C118.242 303.117 117.746 302.938 117.383 302.578C117.023 302.219 116.844 301.707 116.844 301.043C116.844 300.348 117.086 299.836 117.57 299.508C118.059 299.176 118.793 298.992 119.773 298.957L120.91 298.922V298.635C120.91 297.971 120.57 297.639 119.891 297.639C119.367 297.639 118.752 297.797 118.045 298.113L117.453 296.906C118.207 296.512 119.043 296.314 119.961 296.314C120.84 296.314 121.514 296.506 121.982 296.889C122.451 297.271 122.686 297.854 122.686 298.635V303H121.438ZM120.91 299.965L120.219 299.988C119.699 300.004 119.312 300.098 119.059 300.27C118.805 300.441 118.678 300.703 118.678 301.055C118.678 301.559 118.967 301.811 119.545 301.811C119.959 301.811 120.289 301.691 120.535 301.453C120.785 301.215 120.91 300.898 120.91 300.504V299.965ZM127.291 301.693C127.604 301.693 127.979 301.625 128.416 301.488V302.818C127.971 303.018 127.424 303.117 126.775 303.117C126.061 303.117 125.539 302.938 125.211 302.578C124.887 302.215 124.725 301.672 124.725 300.949V297.791H123.869V297.035L124.854 296.438L125.369 295.055H126.512V296.449H128.346V297.791H126.512V300.949C126.512 301.203 126.582 301.391 126.723 301.512C126.867 301.633 127.057 301.693 127.291 301.693ZM134.387 303L134.146 302.162H134.053C133.861 302.467 133.59 302.703 133.238 302.871C132.887 303.035 132.486 303.117 132.037 303.117C131.268 303.117 130.688 302.912 130.297 302.502C129.906 302.088 129.711 301.494 129.711 300.721V296.449H131.498V300.275C131.498 300.748 131.582 301.104 131.75 301.342C131.918 301.576 132.186 301.693 132.553 301.693C133.053 301.693 133.414 301.527 133.637 301.195C133.859 300.859 133.971 300.305 133.971 299.531V296.449H135.758V303H134.387ZM141.289 296.326C141.531 296.326 141.732 296.344 141.893 296.379L141.758 298.055C141.613 298.016 141.438 297.996 141.23 297.996C140.66 297.996 140.215 298.143 139.895 298.436C139.578 298.729 139.42 299.139 139.42 299.666V303H137.633V296.449H138.986L139.25 297.551H139.338C139.541 297.184 139.814 296.889 140.158 296.666C140.506 296.439 140.883 296.326 141.289 296.326ZM147.242 303L146.896 302.109H146.85C146.549 302.488 146.238 302.752 145.918 302.9C145.602 303.045 145.188 303.117 144.676 303.117C144.047 303.117 143.551 302.938 143.188 302.578C142.828 302.219 142.648 301.707 142.648 301.043C142.648 300.348 142.891 299.836 143.375 299.508C143.863 299.176 144.598 298.992 145.578 298.957L146.715 298.922V298.635C146.715 297.971 146.375 297.639 145.695 297.639C145.172 297.639 144.557 297.797 143.85 298.113L143.258 296.906C144.012 296.512 144.848 296.314 145.766 296.314C146.645 296.314 147.318 296.506 147.787 296.889C148.256 297.271 148.49 297.854 148.49 298.635V303H147.242ZM146.715 299.965L146.023 299.988C145.504 300.004 145.117 300.098 144.863 300.27C144.609 300.441 144.482 300.703 144.482 301.055C144.482 301.559 144.771 301.811 145.35 301.811C145.764 301.811 146.094 301.691 146.34 301.453C146.59 301.215 146.715 300.898 146.715 300.504V299.965Z" fill="#666666"/>
</g>
<g filter="url(#filter3_dd)">
<rect x="207" y="184" width="148" height="138" rx="20" fill="white"/>
<path d="M302.239 240.383H299.111" stroke="#60BBE5" stroke-width="2" stroke-miterlimit="10" stroke-linecap="round" stroke-linejoin="round"/>
<path d="M252.679 236.921V255.369C252.685 257.661 253.6 259.856 255.222 261.474C256.845 263.092 259.043 264 261.334 264H278.41C279.629 263.999 280.834 263.738 281.945 263.235C283.056 262.732 284.047 261.998 284.852 261.082" stroke="#60BBE5" stroke-width="2" stroke-miterlimit="10" stroke-linecap="round" stroke-linejoin="round"/>
<path d="M261.68 200.025L262.904 202.275C263.169 202.761 263.561 203.166 264.038 203.447C264.515 203.728 265.059 203.874 265.612 203.87H274.156C274.71 203.871 275.254 203.721 275.731 203.438C276.208 203.156 276.599 202.749 276.864 202.263L278.088 200.025" stroke="#60BBE5" stroke-width="2" stroke-miterlimit="10" stroke-linecap="round" stroke-linejoin="round"/>
<path d="M294.607 229.168H274.663C273.59 229.174 272.563 229.603 271.805 230.363C271.048 231.123 270.622 232.151 270.62 233.224V251.524C270.62 252.599 271.048 253.631 271.808 254.391C272.569 255.151 273.6 255.579 274.675 255.58H305.29C306.366 255.579 307.397 255.151 308.158 254.391C308.918 253.631 309.345 252.599 309.346 251.524V233.224C309.351 232.461 309.14 231.713 308.737 231.065C308.335 230.418 307.757 229.897 307.071 229.564" stroke="#60BBE5" stroke-width="2" stroke-miterlimit="10" stroke-linecap="round" stroke-linejoin="round"/>
<path d="M275.343 215.048L267.677 222.714C267.628 222.766 267.56 222.797 267.488 222.799C267.416 222.802 267.346 222.775 267.294 222.726L267.281 222.714L264.351 219.784" stroke="#60BBE5" stroke-width="2" stroke-miterlimit="10" stroke-linecap="round" stroke-linejoin="round"/>
<path d="M287.04 225.162V208.606C287.04 206.481 286.259 204.43 284.845 202.844C283.432 201.257 281.485 200.245 279.374 200H260.308C258.2 200.249 256.257 201.263 254.846 202.849C253.435 204.435 252.656 206.483 252.654 208.606V227.536" stroke="#60BBE5" stroke-width="2" stroke-miterlimit="10" stroke-linecap="round" stroke-linejoin="round"/>
<path d="M309.346 247.604H278.694" stroke="#60BBE5" stroke-width="2" stroke-miterlimit="10" stroke-linecap="round" stroke-linejoin="round"/>
<path d="M245.439 278.434H247.273L244.361 287H242.381L239.475 278.434H241.309L242.92 283.531C243.01 283.832 243.102 284.184 243.195 284.586C243.293 284.984 243.354 285.262 243.377 285.418C243.42 285.059 243.566 284.43 243.816 283.531L245.439 278.434ZM252.377 287L252.031 286.109H251.984C251.684 286.488 251.373 286.752 251.053 286.9C250.736 287.045 250.322 287.117 249.811 287.117C249.182 287.117 248.686 286.938 248.322 286.578C247.963 286.219 247.783 285.707 247.783 285.043C247.783 284.348 248.025 283.836 248.51 283.508C248.998 283.176 249.732 282.992 250.713 282.957L251.85 282.922V282.635C251.85 281.971 251.51 281.639 250.83 281.639C250.307 281.639 249.691 281.797 248.984 282.113L248.393 280.906C249.146 280.512 249.982 280.314 250.9 280.314C251.779 280.314 252.453 280.506 252.922 280.889C253.391 281.271 253.625 281.854 253.625 282.635V287H252.377ZM251.85 283.965L251.158 283.988C250.639 284.004 250.252 284.098 249.998 284.27C249.744 284.441 249.617 284.703 249.617 285.055C249.617 285.559 249.906 285.811 250.484 285.811C250.898 285.811 251.229 285.691 251.475 285.453C251.725 285.215 251.85 284.898 251.85 284.504V283.965ZM249.863 279.729V279.57C250.535 278.789 250.994 278.201 251.24 277.807H253.244V277.93C253.041 278.133 252.693 278.436 252.201 278.838C251.713 279.236 251.33 279.533 251.053 279.729H249.863ZM259.127 280.326C259.369 280.326 259.57 280.344 259.73 280.379L259.596 282.055C259.451 282.016 259.275 281.996 259.068 281.996C258.498 281.996 258.053 282.143 257.732 282.436C257.416 282.729 257.258 283.139 257.258 283.666V287H255.471V280.449H256.824L257.088 281.551H257.176C257.379 281.184 257.652 280.889 257.996 280.666C258.344 280.439 258.721 280.326 259.127 280.326ZM260.844 278.756C260.844 278.174 261.168 277.883 261.816 277.883C262.465 277.883 262.789 278.174 262.789 278.756C262.789 279.033 262.707 279.25 262.543 279.406C262.383 279.559 262.141 279.635 261.816 279.635C261.168 279.635 260.844 279.342 260.844 278.756ZM262.707 287H260.92V280.449H262.707V287ZM268.748 287L268.402 286.109H268.355C268.055 286.488 267.744 286.752 267.424 286.9C267.107 287.045 266.693 287.117 266.182 287.117C265.553 287.117 265.057 286.938 264.693 286.578C264.334 286.219 264.154 285.707 264.154 285.043C264.154 284.348 264.396 283.836 264.881 283.508C265.369 283.176 266.104 282.992 267.084 282.957L268.221 282.922V282.635C268.221 281.971 267.881 281.639 267.201 281.639C266.678 281.639 266.062 281.797 265.355 282.113L264.764 280.906C265.518 280.512 266.354 280.314 267.271 280.314C268.15 280.314 268.824 280.506 269.293 280.889C269.762 281.271 269.996 281.854 269.996 282.635V287H268.748ZM268.221 283.965L267.529 283.988C267.01 284.004 266.623 284.098 266.369 284.27C266.115 284.441 265.988 284.703 265.988 285.055C265.988 285.559 266.277 285.811 266.855 285.811C267.27 285.811 267.6 285.691 267.846 285.453C268.096 285.215 268.221 284.898 268.221 284.504V283.965ZM276.412 285.055C276.412 285.727 276.178 286.238 275.709 286.59C275.244 286.941 274.547 287.117 273.617 287.117C273.141 287.117 272.734 287.084 272.398 287.018C272.062 286.955 271.748 286.861 271.455 286.736V285.26C271.787 285.416 272.16 285.547 272.574 285.652C272.992 285.758 273.359 285.811 273.676 285.811C274.324 285.811 274.648 285.623 274.648 285.248C274.648 285.107 274.605 284.994 274.52 284.908C274.434 284.818 274.285 284.719 274.074 284.609C273.863 284.496 273.582 284.365 273.23 284.217C272.727 284.006 272.355 283.811 272.117 283.631C271.883 283.451 271.711 283.246 271.602 283.016C271.496 282.781 271.443 282.494 271.443 282.154C271.443 281.572 271.668 281.123 272.117 280.807C272.57 280.486 273.211 280.326 274.039 280.326C274.828 280.326 275.596 280.498 276.342 280.842L275.803 282.131C275.475 281.99 275.168 281.875 274.883 281.785C274.598 281.695 274.307 281.65 274.01 281.65C273.482 281.65 273.219 281.793 273.219 282.078C273.219 282.238 273.303 282.377 273.471 282.494C273.643 282.611 274.016 282.785 274.59 283.016C275.102 283.223 275.477 283.416 275.715 283.596C275.953 283.775 276.129 283.982 276.242 284.217C276.355 284.451 276.412 284.73 276.412 285.055ZM284.545 281.791H282.998V287H281.211V281.791H280.227V280.93L281.211 280.449V279.969C281.211 279.223 281.395 278.678 281.762 278.334C282.129 277.99 282.717 277.818 283.525 277.818C284.143 277.818 284.691 277.91 285.172 278.094L284.715 279.406C284.355 279.293 284.023 279.236 283.719 279.236C283.465 279.236 283.281 279.312 283.168 279.465C283.055 279.613 282.998 279.805 282.998 280.039V280.449H284.545V281.791ZM287 283.713C287 284.361 287.105 284.852 287.316 285.184C287.531 285.516 287.879 285.682 288.359 285.682C288.836 285.682 289.178 285.518 289.385 285.189C289.596 284.857 289.701 284.365 289.701 283.713C289.701 283.064 289.596 282.578 289.385 282.254C289.174 281.93 288.828 281.768 288.348 281.768C287.871 281.768 287.527 281.93 287.316 282.254C287.105 282.574 287 283.061 287 283.713ZM291.529 283.713C291.529 284.779 291.248 285.613 290.686 286.215C290.123 286.816 289.34 287.117 288.336 287.117C287.707 287.117 287.152 286.98 286.672 286.707C286.191 286.43 285.822 286.033 285.564 285.518C285.307 285.002 285.178 284.4 285.178 283.713C285.178 282.643 285.457 281.811 286.016 281.217C286.574 280.623 287.359 280.326 288.371 280.326C289 280.326 289.555 280.463 290.035 280.736C290.516 281.01 290.885 281.402 291.143 281.914C291.4 282.426 291.529 283.025 291.529 283.713ZM296.662 280.326C296.904 280.326 297.105 280.344 297.266 280.379L297.131 282.055C296.986 282.016 296.811 281.996 296.604 281.996C296.033 281.996 295.588 282.143 295.268 282.436C294.951 282.729 294.793 283.139 294.793 283.666V287H293.006V280.449H294.359L294.623 281.551H294.711C294.914 281.184 295.188 280.889 295.531 280.666C295.879 280.439 296.256 280.326 296.662 280.326ZM304.32 287H302.533V283.174C302.533 282.701 302.453 282.348 302.293 282.113C302.137 281.875 301.889 281.756 301.549 281.756C301.092 281.756 300.76 281.924 300.553 282.26C300.346 282.596 300.242 283.148 300.242 283.918V287H298.455V280.449H299.82L300.061 281.287H300.16C300.336 280.986 300.59 280.752 300.922 280.584C301.254 280.412 301.635 280.326 302.064 280.326C303.045 280.326 303.709 280.646 304.057 281.287H304.215C304.391 280.982 304.648 280.746 304.988 280.578C305.332 280.41 305.719 280.326 306.148 280.326C306.891 280.326 307.451 280.518 307.83 280.9C308.213 281.279 308.404 281.889 308.404 282.729V287H306.611V283.174C306.611 282.701 306.531 282.348 306.371 282.113C306.215 281.875 305.967 281.756 305.627 281.756C305.189 281.756 304.861 281.912 304.643 282.225C304.428 282.537 304.32 283.033 304.32 283.713V287ZM314.404 287L314.059 286.109H314.012C313.711 286.488 313.4 286.752 313.08 286.9C312.764 287.045 312.35 287.117 311.838 287.117C311.209 287.117 310.713 286.938 310.35 286.578C309.99 286.219 309.811 285.707 309.811 285.043C309.811 284.348 310.053 283.836 310.537 283.508C311.025 283.176 311.76 282.992 312.74 282.957L313.877 282.922V282.635C313.877 281.971 313.537 281.639 312.857 281.639C312.334 281.639 311.719 281.797 311.012 282.113L310.42 280.906C311.174 280.512 312.01 280.314 312.928 280.314C313.807 280.314 314.48 280.506 314.949 280.889C315.418 281.271 315.652 281.854 315.652 282.635V287H314.404ZM313.877 283.965L313.186 283.988C312.666 284.004 312.279 284.098 312.025 284.27C311.771 284.441 311.645 284.703 311.645 285.055C311.645 285.559 311.934 285.811 312.512 285.811C312.926 285.811 313.256 285.691 313.502 285.453C313.752 285.215 313.877 284.898 313.877 284.504V283.965ZM322.068 285.055C322.068 285.727 321.834 286.238 321.365 286.59C320.9 286.941 320.203 287.117 319.273 287.117C318.797 287.117 318.391 287.084 318.055 287.018C317.719 286.955 317.404 286.861 317.111 286.736V285.26C317.443 285.416 317.816 285.547 318.23 285.652C318.648 285.758 319.016 285.811 319.332 285.811C319.98 285.811 320.305 285.623 320.305 285.248C320.305 285.107 320.262 284.994 320.176 284.908C320.09 284.818 319.941 284.719 319.73 284.609C319.52 284.496 319.238 284.365 318.887 284.217C318.383 284.006 318.012 283.811 317.773 283.631C317.539 283.451 317.367 283.246 317.258 283.016C317.152 282.781 317.1 282.494 317.1 282.154C317.1 281.572 317.324 281.123 317.773 280.807C318.227 280.486 318.867 280.326 319.695 280.326C320.484 280.326 321.252 280.498 321.998 280.842L321.459 282.131C321.131 281.99 320.824 281.875 320.539 281.785C320.254 281.695 319.963 281.65 319.666 281.65C319.139 281.65 318.875 281.793 318.875 282.078C318.875 282.238 318.959 282.377 319.127 282.494C319.299 282.611 319.672 282.785 320.246 283.016C320.758 283.223 321.133 283.416 321.371 283.596C321.609 283.775 321.785 283.982 321.898 284.217C322.012 284.451 322.068 284.73 322.068 285.055ZM240.963 303.117C240.193 303.117 239.588 302.818 239.146 302.221C238.709 301.623 238.49 300.795 238.49 299.736C238.49 298.662 238.713 297.826 239.158 297.229C239.607 296.627 240.225 296.326 241.01 296.326C241.834 296.326 242.463 296.646 242.896 297.287H242.955C242.865 296.799 242.82 296.363 242.82 295.98V293.883H244.613V303H243.242L242.896 302.15H242.82C242.414 302.795 241.795 303.117 240.963 303.117ZM241.59 301.693C242.047 301.693 242.381 301.561 242.592 301.295C242.807 301.029 242.924 300.578 242.943 299.941V299.748C242.943 299.045 242.834 298.541 242.615 298.236C242.4 297.932 242.049 297.779 241.561 297.779C241.162 297.779 240.852 297.949 240.629 298.289C240.41 298.625 240.301 299.115 240.301 299.76C240.301 300.404 240.412 300.889 240.635 301.213C240.857 301.533 241.176 301.693 241.59 301.693ZM249.195 297.598C248.816 297.598 248.52 297.719 248.305 297.961C248.09 298.199 247.967 298.539 247.936 298.98H250.443C250.436 298.539 250.32 298.199 250.098 297.961C249.875 297.719 249.574 297.598 249.195 297.598ZM249.447 303.117C248.393 303.117 247.568 302.826 246.975 302.244C246.381 301.662 246.084 300.838 246.084 299.771C246.084 298.674 246.357 297.826 246.904 297.229C247.455 296.627 248.215 296.326 249.184 296.326C250.109 296.326 250.83 296.59 251.346 297.117C251.861 297.645 252.119 298.373 252.119 299.303V300.17H247.895C247.914 300.678 248.064 301.074 248.346 301.359C248.627 301.645 249.021 301.787 249.529 301.787C249.924 301.787 250.297 301.746 250.648 301.664C251 301.582 251.367 301.451 251.75 301.271V302.654C251.438 302.811 251.104 302.926 250.748 303C250.393 303.078 249.959 303.117 249.447 303.117ZM260.287 303.117C259.518 303.117 258.914 302.838 258.477 302.279H258.383C258.445 302.826 258.477 303.143 258.477 303.229V305.883H256.689V296.449H258.143L258.395 297.299H258.477C258.895 296.65 259.514 296.326 260.334 296.326C261.107 296.326 261.713 296.625 262.15 297.223C262.588 297.82 262.807 298.65 262.807 299.713C262.807 300.412 262.703 301.02 262.496 301.535C262.293 302.051 262.002 302.443 261.623 302.713C261.244 302.982 260.799 303.117 260.287 303.117ZM259.76 297.756C259.318 297.756 258.996 297.893 258.793 298.166C258.59 298.436 258.484 298.883 258.477 299.508V299.701C258.477 300.404 258.58 300.908 258.787 301.213C258.998 301.518 259.33 301.67 259.783 301.67C260.584 301.67 260.984 301.01 260.984 299.689C260.984 299.045 260.885 298.562 260.686 298.242C260.49 297.918 260.182 297.756 259.76 297.756ZM268.443 303L268.098 302.109H268.051C267.75 302.488 267.439 302.752 267.119 302.9C266.803 303.045 266.389 303.117 265.877 303.117C265.248 303.117 264.752 302.938 264.389 302.578C264.029 302.219 263.85 301.707 263.85 301.043C263.85 300.348 264.092 299.836 264.576 299.508C265.064 299.176 265.799 298.992 266.779 298.957L267.916 298.922V298.635C267.916 297.971 267.576 297.639 266.896 297.639C266.373 297.639 265.758 297.797 265.051 298.113L264.459 296.906C265.213 296.512 266.049 296.314 266.967 296.314C267.846 296.314 268.52 296.506 268.988 296.889C269.457 297.271 269.691 297.854 269.691 298.635V303H268.443ZM267.916 299.965L267.225 299.988C266.705 300.004 266.318 300.098 266.064 300.27C265.811 300.441 265.684 300.703 265.684 301.055C265.684 301.559 265.973 301.811 266.551 301.811C266.965 301.811 267.295 301.691 267.541 301.453C267.791 301.215 267.916 300.898 267.916 300.504V299.965ZM277.238 296.449V297.357L276.213 297.621C276.4 297.914 276.494 298.242 276.494 298.605C276.494 299.309 276.248 299.857 275.756 300.252C275.268 300.643 274.588 300.838 273.717 300.838L273.395 300.82L273.131 300.791C272.947 300.932 272.855 301.088 272.855 301.26C272.855 301.518 273.184 301.646 273.84 301.646H274.953C275.672 301.646 276.219 301.801 276.594 302.109C276.973 302.418 277.162 302.871 277.162 303.469C277.162 304.234 276.842 304.828 276.201 305.25C275.564 305.672 274.648 305.883 273.453 305.883C272.539 305.883 271.84 305.723 271.355 305.402C270.875 305.086 270.635 304.641 270.635 304.066C270.635 303.672 270.758 303.342 271.004 303.076C271.25 302.811 271.611 302.621 272.088 302.508C271.904 302.43 271.744 302.303 271.607 302.127C271.471 301.947 271.402 301.758 271.402 301.559C271.402 301.309 271.475 301.102 271.619 300.938C271.764 300.77 271.973 300.605 272.246 300.445C271.902 300.297 271.629 300.059 271.426 299.73C271.227 299.402 271.127 299.016 271.127 298.57C271.127 297.855 271.359 297.303 271.824 296.912C272.289 296.521 272.953 296.326 273.816 296.326C274 296.326 274.217 296.344 274.467 296.379C274.721 296.41 274.883 296.434 274.953 296.449H277.238ZM272.182 303.926C272.182 304.172 272.299 304.365 272.533 304.506C272.771 304.646 273.104 304.717 273.529 304.717C274.17 304.717 274.672 304.629 275.035 304.453C275.398 304.277 275.58 304.037 275.58 303.732C275.58 303.486 275.473 303.316 275.258 303.223C275.043 303.129 274.711 303.082 274.262 303.082H273.336C273.008 303.082 272.732 303.158 272.51 303.311C272.291 303.467 272.182 303.672 272.182 303.926ZM272.832 298.594C272.832 298.949 272.912 299.23 273.072 299.438C273.236 299.645 273.484 299.748 273.816 299.748C274.152 299.748 274.398 299.645 274.555 299.438C274.711 299.23 274.789 298.949 274.789 298.594C274.789 297.805 274.465 297.41 273.816 297.41C273.16 297.41 272.832 297.805 272.832 298.594ZM282.482 303L282.137 302.109H282.09C281.789 302.488 281.479 302.752 281.158 302.9C280.842 303.045 280.428 303.117 279.916 303.117C279.287 303.117 278.791 302.938 278.428 302.578C278.068 302.219 277.889 301.707 277.889 301.043C277.889 300.348 278.131 299.836 278.615 299.508C279.104 299.176 279.838 298.992 280.818 298.957L281.955 298.922V298.635C281.955 297.971 281.615 297.639 280.936 297.639C280.412 297.639 279.797 297.797 279.09 298.113L278.498 296.906C279.252 296.512 280.088 296.314 281.006 296.314C281.885 296.314 282.559 296.506 283.027 296.889C283.496 297.271 283.73 297.854 283.73 298.635V303H282.482ZM281.955 299.965L281.264 299.988C280.744 300.004 280.357 300.098 280.104 300.27C279.85 300.441 279.723 300.703 279.723 301.055C279.723 301.559 280.012 301.811 280.59 301.811C281.004 301.811 281.334 301.691 281.58 301.453C281.83 301.215 281.955 300.898 281.955 300.504V299.965ZM291.441 303H289.654V299.174C289.654 298.701 289.574 298.348 289.414 298.113C289.258 297.875 289.01 297.756 288.67 297.756C288.213 297.756 287.881 297.924 287.674 298.26C287.467 298.596 287.363 299.148 287.363 299.918V303H285.576V296.449H286.941L287.182 297.287H287.281C287.457 296.986 287.711 296.752 288.043 296.584C288.375 296.412 288.756 296.326 289.186 296.326C290.166 296.326 290.83 296.646 291.178 297.287H291.336C291.512 296.982 291.77 296.746 292.109 296.578C292.453 296.41 292.84 296.326 293.27 296.326C294.012 296.326 294.572 296.518 294.951 296.9C295.334 297.279 295.525 297.889 295.525 298.729V303H293.732V299.174C293.732 298.701 293.652 298.348 293.492 298.113C293.336 297.875 293.088 297.756 292.748 297.756C292.311 297.756 291.982 297.912 291.764 298.225C291.549 298.537 291.441 299.033 291.441 299.713V303ZM300.078 297.598C299.699 297.598 299.402 297.719 299.188 297.961C298.973 298.199 298.85 298.539 298.818 298.98H301.326C301.318 298.539 301.203 298.199 300.98 297.961C300.758 297.719 300.457 297.598 300.078 297.598ZM300.33 303.117C299.275 303.117 298.451 302.826 297.857 302.244C297.264 301.662 296.967 300.838 296.967 299.771C296.967 298.674 297.24 297.826 297.787 297.229C298.338 296.627 299.098 296.326 300.066 296.326C300.992 296.326 301.713 296.59 302.229 297.117C302.744 297.645 303.002 298.373 303.002 299.303V300.17H298.777C298.797 300.678 298.947 301.074 299.229 301.359C299.51 301.645 299.904 301.787 300.412 301.787C300.807 301.787 301.18 301.746 301.531 301.664C301.883 301.582 302.25 301.451 302.633 301.271V302.654C302.32 302.811 301.986 302.926 301.631 303C301.275 303.078 300.842 303.117 300.33 303.117ZM310.502 303H308.715V299.174C308.715 298.701 308.631 298.348 308.463 298.113C308.295 297.875 308.027 297.756 307.66 297.756C307.16 297.756 306.799 297.924 306.576 298.26C306.354 298.592 306.242 299.145 306.242 299.918V303H304.455V296.449H305.82L306.061 297.287H306.16C306.359 296.971 306.633 296.732 306.98 296.572C307.332 296.408 307.73 296.326 308.176 296.326C308.938 296.326 309.516 296.533 309.91 296.947C310.305 297.357 310.502 297.951 310.502 298.729V303ZM315.102 301.693C315.414 301.693 315.789 301.625 316.227 301.488V302.818C315.781 303.018 315.234 303.117 314.586 303.117C313.871 303.117 313.35 302.938 313.021 302.578C312.697 302.215 312.535 301.672 312.535 300.949V297.791H311.68V297.035L312.664 296.438L313.18 295.055H314.322V296.449H316.156V297.791H314.322V300.949C314.322 301.203 314.393 301.391 314.533 301.512C314.678 301.633 314.867 301.693 315.102 301.693ZM318.98 299.713C318.98 300.361 319.086 300.852 319.297 301.184C319.512 301.516 319.859 301.682 320.34 301.682C320.816 301.682 321.158 301.518 321.365 301.189C321.576 300.857 321.682 300.365 321.682 299.713C321.682 299.064 321.576 298.578 321.365 298.254C321.154 297.93 320.809 297.768 320.328 297.768C319.852 297.768 319.508 297.93 319.297 298.254C319.086 298.574 318.98 299.061 318.98 299.713ZM323.51 299.713C323.51 300.779 323.229 301.613 322.666 302.215C322.104 302.816 321.32 303.117 320.316 303.117C319.688 303.117 319.133 302.98 318.652 302.707C318.172 302.43 317.803 302.033 317.545 301.518C317.287 301.002 317.158 300.4 317.158 299.713C317.158 298.643 317.438 297.811 317.996 297.217C318.555 296.623 319.34 296.326 320.352 296.326C320.98 296.326 321.535 296.463 322.016 296.736C322.496 297.01 322.865 297.402 323.123 297.914C323.381 298.426 323.51 299.025 323.51 299.713Z" fill="#666666"/>
</g>
<defs>
<filter id="filter0_dd" x="0" y="0" width="235" height="226" filterUnits="userSpaceOnUse" color-interpolation-filters="sRGB">
<feFlood flood-opacity="0" result="BackgroundImageFix"/>
<feColorMatrix in="SourceAlpha" type="matrix" values="0 0 0 0 0 0 0 0 0 0 0 0 0 0 0 0 0 0 127 0" result="hardAlpha"/>
<feOffset dy="14"/>
<feGaussianBlur stdDeviation="22"/>
<feComposite in2="hardAlpha" operator="out"/>
<feColorMatrix type="matrix" values="0 0 0 0 0 0 0 0 0 0 0 0 0 0 0 0 0 0 0.05 0"/>
<feBlend mode="normal" in2="BackgroundImageFix" result="effect1_dropShadow"/>
<feColorMatrix in="SourceAlpha" type="matrix" values="0 0 0 0 0 0 0 0 0 0 0 0 0 0 0 0 0 0 127 0" result="hardAlpha"/>
<feOffset dy="4"/>
<feGaussianBlur stdDeviation="2"/>
<feComposite in2="hardAlpha" operator="out"/>
<feColorMatrix type="matrix" values="0 0 0 0 0 0 0 0 0 0 0 0 0 0 0 0 0 0 0.05 0"/>
<feBlend mode="normal" in2="effect1_dropShadow" result="effect2_dropShadow"/>
<feBlend mode="normal" in="SourceGraphic" in2="effect2_dropShadow" result="shape"/>
</filter>
<filter id="filter1_dd" x="163" y="0" width="236" height="226" filterUnits="userSpaceOnUse" color-interpolation-filters="sRGB">
<feFlood flood-opacity="0" result="BackgroundImageFix"/>
<feColorMatrix in="SourceAlpha" type="matrix" values="0 0 0 0 0 0 0 0 0 0 0 0 0 0 0 0 0 0 127 0" result="hardAlpha"/>
<feOffset dy="14"/>
<feGaussianBlur stdDeviation="22"/>
<feComposite in2="hardAlpha" operator="out"/>
<feColorMatrix type="matrix" values="0 0 0 0 0 0 0 0 0 0 0 0 0 0 0 0 0 0 0.05 0"/>
<feBlend mode="normal" in2="BackgroundImageFix" result="effect1_dropShadow"/>
<feColorMatrix in="SourceAlpha" type="matrix" values="0 0 0 0 0 0 0 0 0 0 0 0 0 0 0 0 0 0 127 0" result="hardAlpha"/>
<feOffset dy="4"/>
<feGaussianBlur stdDeviation="2"/>
<feComposite in2="hardAlpha" operator="out"/>
<feColorMatrix type="matrix" values="0 0 0 0 0 0 0 0 0 0 0 0 0 0 0 0 0 0 0.05 0"/>
<feBlend mode="normal" in2="effect1_dropShadow" result="effect2_dropShadow"/>
<feBlend mode="normal" in="SourceGraphic" in2="effect2_dropShadow" result="shape"/>
</filter>
<filter id="filter2_dd" x="0" y="154" width="235" height="226" filterUnits="userSpaceOnUse" color-interpolation-filters="sRGB">
<feFlood flood-opacity="0" result="BackgroundImageFix"/>
<feColorMatrix in="SourceAlpha" type="matrix" values="0 0 0 0 0 0 0 0 0 0 0 0 0 0 0 0 0 0 127 0" result="hardAlpha"/>
<feOffset dy="14"/>
<feGaussianBlur stdDeviation="22"/>
<feComposite in2="hardAlpha" operator="out"/>
<feColorMatrix type="matrix" values="0 0 0 0 0 0 0 0 0 0 0 0 0 0 0 0 0 0 0.05 0"/>
<feBlend mode="normal" in2="BackgroundImageFix" result="effect1_dropShadow"/>
<feColorMatrix in="SourceAlpha" type="matrix" values="0 0 0 0 0 0 0 0 0 0 0 0 0 0 0 0 0 0 127 0" result="hardAlpha"/>
<feOffset dy="4"/>
<feGaussianBlur stdDeviation="2"/>
<feComposite in2="hardAlpha" operator="out"/>
<feColorMatrix type="matrix" values="0 0 0 0 0 0 0 0 0 0 0 0 0 0 0 0 0 0 0.05 0"/>
<feBlend mode="normal" in2="effect1_dropShadow" result="effect2_dropShadow"/>
<feBlend mode="normal" in="SourceGraphic" in2="effect2_dropShadow" result="shape"/>
</filter>
<filter id="filter3_dd" x="163" y="154" width="236" height="226" filterUnits="userSpaceOnUse" color-interpolation-filters="sRGB">
<feFlood flood-opacity="0" result="BackgroundImageFix"/>
<feColorMatrix in="SourceAlpha" type="matrix" values="0 0 0 0 0 0 0 0 0 0 0 0 0 0 0 0 0 0 127 0" result="hardAlpha"/>
<feOffset dy="14"/>
<feGaussianBlur stdDeviation="22"/>
<feComposite in2="hardAlpha" operator="out"/>
<feColorMatrix type="matrix" values="0 0 0 0 0 0 0 0 0 0 0 0 0 0 0 0 0 0 0.05 0"/>
<feBlend mode="normal" in2="BackgroundImageFix" result="effect1_dropShadow"/>
<feColorMatrix in="SourceAlpha" type="matrix" values="0 0 0 0 0 0 0 0 0 0 0 0 0 0 0 0 0 0 127 0" result="hardAlpha"/>
<feOffset dy="4"/>
<feGaussianBlur stdDeviation="2"/>
<feComposite in2="hardAlpha" operator="out"/>
<feColorMatrix type="matrix" values="0 0 0 0 0 0 0 0 0 0 0 0 0 0 0 0 0 0 0.05 0"/>
<feBlend mode="normal" in2="effect1_dropShadow" result="effect2_dropShadow"/>
<feBlend mode="normal" in="SourceGraphic" in2="effect2_dropShadow" result="shape"/>
</filter>
</defs>
</svg>
