<svg width="47" height="16" viewBox="0 0 47 16" fill="none" xmlns="http://www.w3.org/2000/svg">
<path d="M22.3486 13H15.8271V12.0908L19.2725 8.2627C19.7829 7.68392 20.1338 7.21452 20.3252 6.85449C20.5212 6.48991 20.6191 6.11393 20.6191 5.72656C20.6191 5.20703 20.4619 4.78092 20.1475 4.44824C19.833 4.11556 19.4137 3.94922 18.8896 3.94922C18.2607 3.94922 17.7708 4.12923 17.4199 4.48926C17.0736 4.84473 16.9004 5.34147 16.9004 5.97949H15.6357C15.6357 5.06348 15.9297 4.32292 16.5176 3.75781C17.11 3.19271 17.9007 2.91016 18.8896 2.91016C19.8148 2.91016 20.5462 3.15397 21.084 3.6416C21.6217 4.12467 21.8906 4.76953 21.8906 5.57617C21.8906 6.55599 21.2663 7.72266 20.0176 9.07617L17.3516 11.9678H22.3486V13ZM24.2695 8.00977L24.7754 3.04688H29.875V4.21582H25.8486L25.5479 6.92969C26.0355 6.64258 26.5892 6.49902 27.209 6.49902C28.1159 6.49902 28.8359 6.7998 29.3691 7.40137C29.9023 7.99837 30.1689 8.80729 30.1689 9.82812C30.1689 10.8535 29.891 11.6624 29.335 12.2549C28.7835 12.8428 28.0111 13.1367 27.0176 13.1367C26.138 13.1367 25.4202 12.8929 24.8643 12.4053C24.3083 11.9176 23.9915 11.2432 23.9141 10.3818H25.1104C25.1878 10.9515 25.3906 11.3822 25.7188 11.6738C26.0469 11.9609 26.4798 12.1045 27.0176 12.1045C27.6055 12.1045 28.0658 11.904 28.3984 11.5029C28.7357 11.1019 28.9043 10.5482 28.9043 9.8418C28.9043 9.17643 28.722 8.64323 28.3574 8.24219C27.9974 7.83659 27.5166 7.63379 26.915 7.63379C26.3636 7.63379 25.9307 7.75456 25.6162 7.99609L25.2812 8.26953L24.2695 8.00977ZM37.791 8.75488C37.791 10.236 37.5381 11.3366 37.0322 12.0566C36.5264 12.7767 35.7357 13.1367 34.6602 13.1367C33.5983 13.1367 32.8122 12.7858 32.3018 12.084C31.7913 11.3776 31.527 10.3249 31.5088 8.92578V7.2373C31.5088 5.77441 31.7617 4.6875 32.2676 3.97656C32.7734 3.26562 33.5664 2.91016 34.6465 2.91016C35.7174 2.91016 36.5059 3.25423 37.0117 3.94238C37.5176 4.62598 37.7773 5.68327 37.791 7.11426V8.75488ZM36.5264 7.02539C36.5264 5.95443 36.376 5.17513 36.0752 4.6875C35.7744 4.19531 35.2982 3.94922 34.6465 3.94922C33.9993 3.94922 33.5277 4.19303 33.2314 4.68066C32.9352 5.16829 32.7826 5.91797 32.7734 6.92969V8.95312C32.7734 10.0286 32.9284 10.8239 33.2383 11.3389C33.5527 11.8493 34.0267 12.1045 34.6602 12.1045C35.2845 12.1045 35.7471 11.863 36.0479 11.3799C36.3532 10.8968 36.5127 10.1357 36.5264 9.09668V7.02539ZM45.6523 8.75488C45.6523 10.236 45.3994 11.3366 44.8936 12.0566C44.3877 12.7767 43.597 13.1367 42.5215 13.1367C41.4596 13.1367 40.6735 12.7858 40.1631 12.084C39.6527 11.3776 39.3883 10.3249 39.3701 8.92578V7.2373C39.3701 5.77441 39.623 4.6875 40.1289 3.97656C40.6348 3.26562 41.4277 2.91016 42.5078 2.91016C43.5788 2.91016 44.3672 3.25423 44.873 3.94238C45.3789 4.62598 45.6387 5.68327 45.6523 7.11426V8.75488ZM44.3877 7.02539C44.3877 5.95443 44.2373 5.17513 43.9365 4.6875C43.6357 4.19531 43.1595 3.94922 42.5078 3.94922C41.8607 3.94922 41.389 4.19303 41.0928 4.68066C40.7965 5.16829 40.6439 5.91797 40.6348 6.92969V8.95312C40.6348 10.0286 40.7897 10.8239 41.0996 11.3389C41.4141 11.8493 41.888 12.1045 42.5215 12.1045C43.1458 12.1045 43.6084 11.863 43.9092 11.3799C44.2145 10.8968 44.374 10.1357 44.3877 9.09668V7.02539Z" fill="white"/>
<circle cx="6" cy="8" r="5.5" stroke="white"/>
</svg>
