<svg width="55" height="16" viewBox="0 0 55 16" fill="none" xmlns="http://www.w3.org/2000/svg">
<path d="M19.9834 13H18.7119V4.57129L16.1621 5.50781V4.35938L19.7852 2.99902H19.9834V13ZM29.9297 8.75488C29.9297 10.236 29.6768 11.3366 29.1709 12.0566C28.665 12.7767 27.8743 13.1367 26.7988 13.1367C25.737 13.1367 24.9508 12.7858 24.4404 12.084C23.93 11.3776 23.6657 10.3249 23.6475 8.92578V7.2373C23.6475 5.77441 23.9004 4.6875 24.4062 3.97656C24.9121 3.26562 25.7051 2.91016 26.7852 2.91016C27.8561 2.91016 28.6445 3.25423 29.1504 3.94238C29.6562 4.62598 29.916 5.68327 29.9297 7.11426V8.75488ZM28.665 7.02539C28.665 5.95443 28.5146 5.17513 28.2139 4.6875C27.9131 4.19531 27.4368 3.94922 26.7852 3.94922C26.138 3.94922 25.6663 4.19303 25.3701 4.68066C25.0739 5.16829 24.9212 5.91797 24.9121 6.92969V8.95312C24.9121 10.0286 25.0671 10.8239 25.377 11.3389C25.6914 11.8493 26.1654 12.1045 26.7988 12.1045C27.4232 12.1045 27.8857 11.863 28.1865 11.3799C28.4919 10.8968 28.6514 10.1357 28.665 9.09668V7.02539ZM37.791 8.75488C37.791 10.236 37.5381 11.3366 37.0322 12.0566C36.5264 12.7767 35.7357 13.1367 34.6602 13.1367C33.5983 13.1367 32.8122 12.7858 32.3018 12.084C31.7913 11.3776 31.527 10.3249 31.5088 8.92578V7.2373C31.5088 5.77441 31.7617 4.6875 32.2676 3.97656C32.7734 3.26562 33.5664 2.91016 34.6465 2.91016C35.7174 2.91016 36.5059 3.25423 37.0117 3.94238C37.5176 4.62598 37.7773 5.68327 37.791 7.11426V8.75488ZM36.5264 7.02539C36.5264 5.95443 36.376 5.17513 36.0752 4.6875C35.7744 4.19531 35.2982 3.94922 34.6465 3.94922C33.9993 3.94922 33.5277 4.19303 33.2314 4.68066C32.9352 5.16829 32.7826 5.91797 32.7734 6.92969V8.95312C32.7734 10.0286 32.9284 10.8239 33.2383 11.3389C33.5527 11.8493 34.0267 12.1045 34.6602 12.1045C35.2845 12.1045 35.7471 11.863 36.0479 11.3799C36.3532 10.8968 36.5127 10.1357 36.5264 9.09668V7.02539ZM45.6523 8.75488C45.6523 10.236 45.3994 11.3366 44.8936 12.0566C44.3877 12.7767 43.597 13.1367 42.5215 13.1367C41.4596 13.1367 40.6735 12.7858 40.1631 12.084C39.6527 11.3776 39.3883 10.3249 39.3701 8.92578V7.2373C39.3701 5.77441 39.623 4.6875 40.1289 3.97656C40.6348 3.26562 41.4277 2.91016 42.5078 2.91016C43.5788 2.91016 44.3672 3.25423 44.873 3.94238C45.3789 4.62598 45.6387 5.68327 45.6523 7.11426V8.75488ZM44.3877 7.02539C44.3877 5.95443 44.2373 5.17513 43.9365 4.6875C43.6357 4.19531 43.1595 3.94922 42.5078 3.94922C41.8607 3.94922 41.389 4.19303 41.0928 4.68066C40.7965 5.16829 40.6439 5.91797 40.6348 6.92969V8.95312C40.6348 10.0286 40.7897 10.8239 41.0996 11.3389C41.4141 11.8493 41.888 12.1045 42.5215 12.1045C43.1458 12.1045 43.6084 11.863 43.9092 11.3799C44.2145 10.8968 44.374 10.1357 44.3877 9.09668V7.02539ZM53.5137 8.75488C53.5137 10.236 53.2607 11.3366 52.7549 12.0566C52.249 12.7767 51.4583 13.1367 50.3828 13.1367C49.321 13.1367 48.5348 12.7858 48.0244 12.084C47.514 11.3776 47.2497 10.3249 47.2314 8.92578V7.2373C47.2314 5.77441 47.4844 4.6875 47.9902 3.97656C48.4961 3.26562 49.2891 2.91016 50.3691 2.91016C51.4401 2.91016 52.2285 3.25423 52.7344 3.94238C53.2402 4.62598 53.5 5.68327 53.5137 7.11426V8.75488ZM52.249 7.02539C52.249 5.95443 52.0986 5.17513 51.7979 4.6875C51.4971 4.19531 51.0208 3.94922 50.3691 3.94922C49.722 3.94922 49.2503 4.19303 48.9541 4.68066C48.6579 5.16829 48.5052 5.91797 48.4961 6.92969V8.95312C48.4961 10.0286 48.651 10.8239 48.9609 11.3389C49.2754 11.8493 49.7493 12.1045 50.3828 12.1045C51.0072 12.1045 51.4697 11.863 51.7705 11.3799C52.0758 10.8968 52.2354 10.1357 52.249 9.09668V7.02539Z" fill="white"/>
<circle cx="6" cy="8" r="5.5" stroke="white"/>
</svg>
