<svg width="94" height="24" viewBox="0 0 94 24" fill="none" xmlns="http://www.w3.org/2000/svg">
<path d="M4.32075 6.07164C4.74475 5.46893 5.31321 4.98223 5.97403 4.65611C6.63485 4.33 7.36692 4.1749 8.10322 4.205C8.90294 4.19578 9.69505 4.36114 10.4243 4.68953C11.1536 5.01792 11.8024 5.50144 12.3256 6.10637C13.4832 7.37394 14.062 9.00037 14.062 10.9567C14.062 12.9131 13.4832 14.5395 12.3053 15.7984C11.7935 16.3971 11.1567 16.8763 10.4397 17.2023C9.72268 17.5283 8.94291 17.6932 8.15531 17.6853C6.50283 17.6853 5.29315 16.9936 4.33234 15.6074V24H0V4.32077H4.32075V6.07164ZM9.04956 13.353C9.62836 12.7934 9.91776 11.9947 9.91776 10.9567C9.91776 9.91874 9.62836 9.11613 9.04956 8.54891C8.78944 8.27981 8.47781 8.0658 8.13326 7.91962C7.78871 7.77345 7.41829 7.69811 7.04402 7.69807C6.67035 7.698 6.30038 7.77216 5.9556 7.91623C5.61083 8.0603 5.2981 8.27143 5.03558 8.53734C4.45678 9.09492 4.16738 9.89365 4.16738 10.9336C4.16738 11.9735 4.45678 12.7761 5.03558 13.3414C5.29701 13.6087 5.60921 13.8211 5.95386 13.9661C6.2985 14.1111 6.66866 14.1858 7.04257 14.1858C7.41648 14.1858 7.78662 14.1111 8.13127 13.9661C8.47591 13.8211 8.78813 13.6087 9.04956 13.3414" fill="white"/>
<path d="M37.0635 13.926H38.3629V17.2859H36.45C34.9712 17.2859 33.747 17.0775 32.9367 16.4177C32.1264 15.7579 31.6402 14.7623 31.6402 13.1706V7.67201H30.6823V4.32076H31.6402V0.960815H35.9638V4.32076H38.3629V7.68359H35.9638V13.1822C35.9638 13.7957 36.2532 13.9317 37.0635 13.9317" fill="white"/>
<path d="M45.9395 0H41.5174V17.2859H45.9395V0Z" fill="white"/>
<path d="M65.3438 4.32077H69.7947L72.6395 13.5121L75.4872 4.32077H79.9353L75.2615 17.2859H70.0205L65.3438 4.32077Z" fill="white"/>
<path d="M56.164 5.22371C56.7417 4.72404 57.4167 4.34959 58.1464 4.12399C61.8681 3.03874 64.7679 5.96747 64.1717 9.58208C63.9286 11.0551 63.153 12.2735 62.1951 13.379C60.6305 15.1547 58.7467 16.6213 56.6415 17.7027C56.5291 17.7899 56.3949 17.8446 56.2536 17.8609C56.1123 17.8773 55.9692 17.8546 55.8398 17.7953C53.215 16.4206 50.8969 14.6784 49.2126 12.1983C48.4901 11.211 48.0862 10.0266 48.055 8.80359C48.055 7.00352 48.6627 5.47259 50.2805 4.53493C51.8982 3.59727 53.6173 3.70725 55.261 4.60728C55.5678 4.77513 55.8399 5.00087 56.1698 5.22371" fill="#F24783"/>
<path d="M28.9342 12.479C28.9969 12.0176 29.0289 11.5526 29.0298 11.0869C29.0298 8.95696 28.3902 7.17713 27.111 5.97612C25.8319 4.77511 24.217 4.17896 22.2838 4.17896C20.3506 4.17896 18.7589 4.78669 17.5377 5.99928C16.3164 7.21187 15.7029 8.84987 15.7029 10.8988C15.67 12.1818 15.9764 13.4507 16.5913 14.5771C16.6579 14.6958 16.7302 14.8173 16.8084 14.9302L16.9068 15.0778C16.9791 15.1791 17.0573 15.2804 17.1354 15.3672C17.2648 15.5281 17.4029 15.6817 17.5492 15.8273C18.7802 17.066 20.3584 17.6853 22.2838 17.6853H22.4488C24.3916 17.6853 25.9737 17.0775 27.195 15.8621C27.8777 15.1819 28.3844 14.3455 28.6709 13.4253H24.3646C24.1073 13.7248 23.7859 13.9625 23.4242 14.1208C23.0624 14.2791 22.6697 14.354 22.2752 14.3398C20.9729 14.3398 19.9107 13.5526 19.8587 12.5687V12.479H28.9342ZM20.6979 8.13795C21.1559 7.76196 21.7385 7.57188 22.3301 7.60545C22.9377 7.5829 23.5335 7.77673 24.0116 8.15242C24.4477 8.52015 24.7339 9.03494 24.8161 9.59942H19.8673C19.9906 9.03888 20.2801 8.52854 20.6979 8.13506V8.13795Z" fill="white"/>
<path d="M93.3809 12.479C93.4436 12.0176 93.4755 11.5526 93.4764 11.0869C93.4764 8.95696 92.834 7.17713 91.5577 5.97612C90.2814 4.77511 88.6637 4.17896 86.7276 4.17896C84.7915 4.17896 83.2056 4.78669 81.9843 5.99928C80.763 7.21187 80.1495 8.84987 80.1495 10.8988C80.1171 12.1814 80.4225 13.4499 81.0351 14.5771C81.1045 14.6958 81.1769 14.8173 81.2521 14.9302L81.3534 15.0778C81.4258 15.1791 81.501 15.2804 81.5821 15.3672C81.7113 15.5273 81.8484 15.6809 81.993 15.8273C83.2258 17.066 84.804 17.6853 86.7276 17.6853H86.8926C88.8354 17.6853 90.4184 17.0775 91.6416 15.8621C92.3279 15.1802 92.8366 14.3406 93.1233 13.4166H88.8084C88.5517 13.716 88.2307 13.9537 87.8695 14.112C87.5082 14.2704 87.116 14.3452 86.7218 14.3311C85.4195 14.3311 84.3574 13.5439 84.3024 12.56V12.4703L93.3809 12.479ZM85.1446 8.13795C85.6026 7.76196 86.1852 7.57188 86.7768 7.60545C87.3836 7.58232 87.9787 7.77626 88.4553 8.15242C88.8927 8.5191 89.1792 9.03441 89.2598 9.59942H84.314C84.4361 9.03842 84.7257 8.52775 85.1446 8.13506V8.13795Z" fill="white"/>
</svg>
