<svg width="80" height="80" viewBox="0 0 80 80" fill="none" xmlns="http://www.w3.org/2000/svg">
<path d="M40 2C44.9902 2 49.9316 2.9829 54.542 4.89258C59.1523 6.80226 63.3414 9.60132 66.8701 13.1299C70.3987 16.6586 73.1977 20.8477 75.1074 25.458C77.0171 30.0684 78 35.0098 78 40C78 44.9902 77.0171 49.9316 75.1074 54.542C73.1977 59.1523 70.3987 63.3414 66.8701 66.8701C63.3414 70.3987 59.1523 73.1977 54.542 75.1074C49.9316 77.0171 44.9902 78 40 78C35.0098 78 30.0684 77.0171 25.458 75.1074C20.8477 73.1977 16.6586 70.3987 13.1299 66.8701C9.60131 63.3414 6.80225 59.1523 4.89258 54.542C2.9829 49.9316 2 44.9902 2 40C2 35.0098 2.9829 30.0684 4.89258 25.458C6.80226 20.8477 9.60132 16.6586 13.1299 13.1299C16.6586 9.60131 20.8477 6.80225 25.458 4.89258C30.0684 2.9829 35.0098 2 40 2L40 2Z" stroke="#DDDDDD" stroke-width="4"/>
<path d="M40 2C46.5586 2 53.0056 3.69751 58.7137 6.9274C64.4219 10.1573 69.1969 14.8096 72.5743 20.4317C75.9517 26.0539 77.8164 32.4545 77.9871 39.0108C78.1578 45.5672 76.6287 52.0562 73.5485 57.8465C70.4683 63.6368 65.9419 68.5313 60.4096 72.0539C54.8772 75.5764 48.5274 77.6072 41.9776 77.9485C35.4279 78.2898 28.9014 76.9301 23.0328 74.0017C17.1643 71.0733 12.1537 66.6758 8.48827 61.237" stroke="#3380D2" stroke-width="4" stroke-linejoin="round"/>
<path d="M30.3496 33.542C30.3496 30.999 30.8857 29.1064 31.958 27.8643C33.0361 26.6221 34.6475 26.001 36.792 26.001C37.5244 26.001 38.0986 26.0449 38.5146 26.1328V28.3037C37.9932 28.1865 37.4775 28.1279 36.9678 28.1279C36.0361 28.1279 35.2744 28.2686 34.6826 28.5498C34.0967 28.8311 33.6572 29.2471 33.3643 29.7979C33.0713 30.3486 32.8984 31.1309 32.8457 32.1445H32.96C33.54 31.1484 34.4688 30.6504 35.7461 30.6504C36.8945 30.6504 37.7939 31.0107 38.4443 31.7314C39.0947 32.4521 39.4199 33.4482 39.4199 34.7197C39.4199 36.0908 39.0332 37.1777 38.2598 37.9805C37.4863 38.7773 36.4141 39.1758 35.043 39.1758C34.0938 39.1758 33.2646 38.9561 32.5557 38.5166C31.8525 38.0771 31.3076 37.4355 30.9209 36.5918C30.54 35.748 30.3496 34.7314 30.3496 33.542ZM34.9902 37.0049C35.5703 37.0049 36.0156 36.8115 36.3262 36.4248C36.6367 36.0322 36.792 35.4756 36.792 34.7549C36.792 34.1279 36.6455 33.6357 36.3525 33.2783C36.0654 32.915 35.6289 32.7334 35.043 32.7334C34.4922 32.7334 34.0205 32.9121 33.6279 33.2695C33.2412 33.627 33.0479 34.043 33.0479 34.5176C33.0479 35.2148 33.2295 35.8037 33.5928 36.2842C33.9619 36.7646 34.4277 37.0049 34.9902 37.0049ZM45.3965 30.791C46.6387 30.791 47.626 31.1396 48.3584 31.8369C49.0967 32.5342 49.4658 33.4893 49.4658 34.7021C49.4658 36.1377 49.0234 37.2422 48.1387 38.0156C47.2539 38.7891 45.9883 39.1758 44.3418 39.1758C42.9121 39.1758 41.7578 38.9443 40.8789 38.4814V36.1348C41.3418 36.3809 41.8809 36.583 42.4961 36.7412C43.1113 36.8936 43.6943 36.9697 44.2451 36.9697C45.9033 36.9697 46.7324 36.29 46.7324 34.9307C46.7324 33.6357 45.874 32.9883 44.1572 32.9883C43.8467 32.9883 43.5039 33.0205 43.1289 33.085C42.7539 33.1436 42.4492 33.208 42.2148 33.2783L41.1338 32.6982L41.6172 26.1504H48.5869V28.4531H43.999L43.7617 30.9756L44.0693 30.9141C44.4268 30.832 44.8691 30.791 45.3965 30.791Z" fill="#3380D2"/>
<path d="M31.7793 46.4336L28.5859 55H27.6133L30.8066 46.4336H31.7793ZM36.0918 55H35.1426V48.8945C35.1426 48.3867 35.1582 47.9062 35.1895 47.4531C35.1074 47.5352 35.0156 47.6211 34.9141 47.7109C34.8125 47.8008 34.3477 48.1816 33.5195 48.8535L33.0039 48.1855L35.2715 46.4336H36.0918V55ZM45.0332 50.7051C45.0332 52.1855 44.7988 53.291 44.3301 54.0215C43.8652 54.752 43.1523 55.1172 42.1914 55.1172C41.2695 55.1172 40.5684 54.7441 40.0879 53.998C39.6074 53.248 39.3672 52.1504 39.3672 50.7051C39.3672 49.2129 39.5996 48.1055 40.0645 47.3828C40.5293 46.6602 41.2383 46.2988 42.1914 46.2988C43.1211 46.2988 43.8262 46.6758 44.3066 47.4297C44.791 48.1836 45.0332 49.2754 45.0332 50.7051ZM40.3516 50.7051C40.3516 51.9512 40.498 52.8594 40.791 53.4297C41.084 53.9961 41.5508 54.2793 42.1914 54.2793C42.8398 54.2793 43.3086 53.9922 43.5977 53.418C43.8906 52.8398 44.0371 51.9355 44.0371 50.7051C44.0371 49.4746 43.8906 48.5742 43.5977 48.0039C43.3086 47.4297 42.8398 47.1426 42.1914 47.1426C41.5508 47.1426 41.084 47.4258 40.791 47.9922C40.498 48.5547 40.3516 49.459 40.3516 50.7051ZM51.9004 50.7051C51.9004 52.1855 51.666 53.291 51.1973 54.0215C50.7324 54.752 50.0195 55.1172 49.0586 55.1172C48.1367 55.1172 47.4355 54.7441 46.9551 53.998C46.4746 53.248 46.2344 52.1504 46.2344 50.7051C46.2344 49.2129 46.4668 48.1055 46.9316 47.3828C47.3965 46.6602 48.1055 46.2988 49.0586 46.2988C49.9883 46.2988 50.6934 46.6758 51.1738 47.4297C51.6582 48.1836 51.9004 49.2754 51.9004 50.7051ZM47.2188 50.7051C47.2188 51.9512 47.3652 52.8594 47.6582 53.4297C47.9512 53.9961 48.418 54.2793 49.0586 54.2793C49.707 54.2793 50.1758 53.9922 50.4648 53.418C50.7578 52.8398 50.9043 51.9355 50.9043 50.7051C50.9043 49.4746 50.7578 48.5742 50.4648 48.0039C50.1758 47.4297 49.707 47.1426 49.0586 47.1426C48.418 47.1426 47.9512 47.4258 47.6582 47.9922C47.3652 48.5547 47.2188 49.459 47.2188 50.7051Z" fill="#666666"/>
</svg>
