<svg width="70" height="46" viewBox="0 0 70 46" fill="none" xmlns="http://www.w3.org/2000/svg">
<rect width="69.8163" height="46" rx="13.5" fill="#F24783"/>
<path d="M16.5146 15H12.4765V7.86133H16.5146V8.84766H13.6435V10.791H16.3339V11.7676H13.6435V14.0088H16.5146V15ZM22.4911 15H21.3388V11.6699C21.3388 11.2565 21.2607 10.9489 21.1044 10.7471C20.9482 10.542 20.704 10.4395 20.372 10.4395C19.9293 10.4395 19.6038 10.5843 19.3954 10.874C19.1904 11.1605 19.0878 11.639 19.0878 12.3096V15H17.9404V9.59961H18.8388L18.9999 10.3076H19.0585C19.2083 10.0505 19.4247 9.85189 19.7079 9.71191C19.9944 9.57194 20.3085 9.50195 20.6503 9.50195C21.4804 9.50195 22.0305 9.78516 22.3007 10.3516H22.3788C22.5384 10.0846 22.763 9.8763 23.0527 9.72656C23.3424 9.57682 23.6744 9.50195 24.0488 9.50195C24.6933 9.50195 25.162 9.66471 25.455 9.99023C25.7512 10.3158 25.8994 10.8122 25.8994 11.4795V15H24.7519V11.6699C24.7519 11.2565 24.6721 10.9489 24.5126 10.7471C24.3564 10.542 24.1122 10.4395 23.7802 10.4395C23.3342 10.4395 23.0071 10.5794 22.7988 10.8594C22.5937 11.1361 22.4911 11.5625 22.4911 12.1387V15ZM31.9199 15.0977C31.246 15.0977 30.7203 14.8535 30.3427 14.3652C29.9651 13.877 29.7763 13.1917 29.7763 12.3096C29.7763 11.4242 29.9667 10.7357 30.3476 10.2441C30.7317 9.74935 31.2623 9.50195 31.9394 9.50195C32.649 9.50195 33.1894 9.764 33.5605 10.2881H33.6191C33.5637 9.90072 33.5361 9.59473 33.5361 9.37012V7.40234H34.6884V15H33.79L33.5898 14.292H33.5361C33.1682 14.8291 32.6295 15.0977 31.9199 15.0977ZM32.2275 14.1699C32.6995 14.1699 33.0429 14.0381 33.2578 13.7744C33.4726 13.5075 33.5833 13.0762 33.5898 12.4805V12.3193C33.5898 11.639 33.4791 11.1556 33.2578 10.8691C33.0364 10.5827 32.6897 10.4395 32.2177 10.4395C31.8141 10.4395 31.5032 10.6038 31.2851 10.9326C31.067 11.2581 30.9579 11.7236 30.9579 12.3291C30.9579 12.9281 31.0637 13.3854 31.2753 13.7012C31.4869 14.0137 31.8043 14.1699 32.2275 14.1699ZM41.1191 12.29C41.1191 13.1722 40.8928 13.8607 40.4404 14.3555C39.9879 14.8503 39.358 15.0977 38.5507 15.0977C38.0462 15.0977 37.6002 14.9837 37.2128 14.7559C36.8255 14.528 36.5276 14.2008 36.3193 13.7744C36.1109 13.348 36.0068 12.8532 36.0068 12.29C36.0068 11.4144 36.2314 10.7308 36.6806 10.2393C37.1298 9.74772 37.763 9.50195 38.58 9.50195C39.3613 9.50195 39.9798 9.75423 40.4355 10.2588C40.8912 10.7601 41.1191 11.4372 41.1191 12.29ZM37.1884 12.29C37.1884 13.5368 37.649 14.1602 38.5703 14.1602C39.4817 14.1602 39.9374 13.5368 39.9374 12.29C39.9374 11.0563 39.4785 10.4395 38.5605 10.4395C38.0787 10.4395 37.7288 10.599 37.5107 10.918C37.2958 11.237 37.1884 11.6943 37.1884 12.29ZM45.2011 9.50195C45.8749 9.50195 46.399 9.74609 46.7734 10.2344C47.151 10.7227 47.3398 11.4079 47.3398 12.29C47.3398 13.1755 47.1494 13.8656 46.7685 14.3604C46.3876 14.8519 45.8587 15.0977 45.1816 15.0977C44.498 15.0977 43.9674 14.8519 43.5898 14.3604H43.5117L43.3017 15H42.4423V7.40234H43.5898V9.20898C43.5898 9.34245 43.5833 9.54102 43.5703 9.80469C43.5572 10.0684 43.5475 10.236 43.541 10.3076H43.5898C43.9544 9.77051 44.4915 9.50195 45.2011 9.50195ZM44.9033 10.4395C44.441 10.4395 44.1074 10.5762 43.9023 10.8496C43.7005 11.1198 43.5963 11.5739 43.5898 12.2119V12.29C43.5898 12.9476 43.6939 13.4245 43.9023 13.7207C44.1106 14.0137 44.4508 14.1602 44.9228 14.1602C45.3297 14.1602 45.6373 13.999 45.8456 13.6768C46.0572 13.3545 46.163 12.889 46.163 12.2803C46.163 11.0531 45.7431 10.4395 44.9033 10.4395ZM51.412 9.50195C51.6432 9.50195 51.8336 9.51823 51.9833 9.55078L51.871 10.6201C51.7083 10.5811 51.539 10.5615 51.3632 10.5615C50.9042 10.5615 50.5315 10.7113 50.2451 11.0107C49.9619 11.3102 49.8203 11.6992 49.8203 12.1777V15H48.6728V9.59961H49.5712L49.7226 10.5518H49.7812C49.9602 10.2295 50.193 9.97396 50.4794 9.78516C50.7691 9.59635 51.08 9.50195 51.412 9.50195ZM57.7792 12.29C57.7792 13.1722 57.553 13.8607 57.1005 14.3555C56.6481 14.8503 56.0182 15.0977 55.2109 15.0977C54.7063 15.0977 54.2604 14.9837 53.873 14.7559C53.4856 14.528 53.1878 14.2008 52.9794 13.7744C52.7711 13.348 52.6669 12.8532 52.6669 12.29C52.6669 11.4144 52.8915 10.7308 53.3408 10.2393C53.79 9.74772 54.4231 9.50195 55.2402 9.50195C56.0214 9.50195 56.6399 9.75423 57.0956 10.2588C57.5514 10.7601 57.7792 11.4372 57.7792 12.29ZM53.8486 12.29C53.8486 13.5368 54.3092 14.1602 55.2304 14.1602C56.1419 14.1602 56.5976 13.5368 56.5976 12.29C56.5976 11.0563 56.1386 10.4395 55.2206 10.4395C54.7389 10.4395 54.3889 10.599 54.1708 10.918C53.956 11.237 53.8486 11.6943 53.8486 12.29Z" fill="white"/>
<rect y="19" width="69.8163" height="27" rx="13.5" fill="#582D89"/>
<path d="M8.12494 33.6729H5.40424V32.4561H8.12494V29.667H9.35541V32.4561H12.0829V33.6729H9.35541V36.4482H8.12494V33.6729ZM23.3964 30.3027C23.3964 30.9362 23.2119 31.4648 22.8427 31.8887C22.4736 32.3079 21.954 32.5905 21.2841 32.7363V32.791C22.0862 32.8913 22.6878 33.1419 23.0888 33.543C23.4898 33.9395 23.6904 34.4681 23.6904 35.1289C23.6904 36.0905 23.3509 36.8333 22.6718 37.3574C21.9928 37.877 21.0266 38.1367 19.7734 38.1367C18.666 38.1367 17.7317 37.9567 16.9706 37.5967V36.168C17.3945 36.3776 17.8434 36.5394 18.3173 36.6533C18.7913 36.7673 19.247 36.8242 19.6845 36.8242C20.4592 36.8242 21.038 36.6807 21.4208 36.3936C21.8036 36.1064 21.9951 35.6621 21.9951 35.0605C21.9951 34.5273 21.7831 34.1354 21.3593 33.8848C20.9355 33.6341 20.2701 33.5088 19.3632 33.5088H18.4951V32.2031H19.3769C20.9719 32.2031 21.7695 31.6517 21.7695 30.5488C21.7695 30.1204 21.6305 29.79 21.3525 29.5576C21.0745 29.3252 20.6643 29.209 20.122 29.209C19.7438 29.209 19.3792 29.2637 19.0283 29.373C18.6773 29.4779 18.2626 29.6852 17.7841 29.9951L16.998 28.874C17.914 28.1995 18.9781 27.8623 20.1904 27.8623C21.1975 27.8623 21.9837 28.0788 22.5488 28.5117C23.1139 28.9447 23.3964 29.5417 23.3964 30.3027ZM31.7704 33.0029C31.7704 34.7393 31.4902 36.029 30.9296 36.8721C30.3736 37.7152 29.5214 38.1367 28.373 38.1367C27.261 38.1367 26.4179 37.7015 25.8437 36.8311C25.2695 35.9606 24.9824 34.6846 24.9824 33.0029C24.9824 31.2393 25.2604 29.9404 25.8163 29.1064C26.3769 28.2679 27.2291 27.8486 28.373 27.8486C29.4895 27.8486 30.3349 28.2861 30.9091 29.1611C31.4833 30.0361 31.7704 31.3167 31.7704 33.0029ZM26.6093 33.0029C26.6093 34.3656 26.7483 35.3385 27.0263 35.9219C27.3089 36.5052 27.7578 36.7969 28.373 36.7969C28.9882 36.7969 29.4371 36.5007 29.7197 35.9082C30.0068 35.3158 30.1503 34.3473 30.1503 33.0029C30.1503 31.6631 30.0068 30.6947 29.7197 30.0977C29.4371 29.4961 28.9882 29.1953 28.373 29.1953C27.7578 29.1953 27.3089 29.4893 27.0263 30.0771C26.7483 30.665 26.6093 31.6403 26.6093 33.0029ZM39.7685 33.0029C39.7685 34.7393 39.4882 36.029 38.9277 36.8721C38.3717 37.7152 37.5195 38.1367 36.371 38.1367C35.2591 38.1367 34.416 37.7015 33.8417 36.8311C33.2675 35.9606 32.9804 34.6846 32.9804 33.0029C32.9804 31.2393 33.2584 29.9404 33.8144 29.1064C34.3749 28.2679 35.2272 27.8486 36.371 27.8486C37.4876 27.8486 38.3329 28.2861 38.9072 29.1611C39.4814 30.0361 39.7685 31.3167 39.7685 33.0029ZM34.6074 33.0029C34.6074 34.3656 34.7464 35.3385 35.0244 35.9219C35.3069 36.5052 35.7558 36.7969 36.371 36.7969C36.9863 36.7969 37.4352 36.5007 37.7177 35.9082C38.0048 35.3158 38.1484 34.3473 38.1484 33.0029C38.1484 31.6631 38.0048 30.6947 37.7177 30.0977C37.4352 29.4961 36.9863 29.1953 36.371 29.1953C35.7558 29.1953 35.3069 29.4893 35.0244 30.0771C34.7464 30.665 34.6074 31.6403 34.6074 33.0029ZM48.997 38.1367C48.04 38.1367 47.2971 37.7926 46.7685 37.1045H46.6728C46.7366 37.7425 46.7685 38.1299 46.7685 38.2666V41.3633H45.162V30.4395H46.4609C46.4973 30.5807 46.5725 30.918 46.6865 31.4512H46.7685C47.2698 30.6855 48.0217 30.3027 49.0244 30.3027C49.9677 30.3027 50.7014 30.6445 51.2255 31.3281C51.7542 32.0117 52.0185 32.971 52.0185 34.2061C52.0185 35.4411 51.7496 36.4049 51.2119 37.0977C50.6786 37.7904 49.9404 38.1367 48.997 38.1367ZM48.6074 31.6152C47.9693 31.6152 47.5022 31.8021 47.206 32.1758C46.9143 32.5495 46.7685 33.1465 46.7685 33.9668V34.2061C46.7685 35.1266 46.9143 35.7943 47.206 36.209C47.4977 36.6191 47.9739 36.8242 48.6347 36.8242C49.1907 36.8242 49.6191 36.5964 49.9199 36.1406C50.2206 35.6849 50.371 35.0355 50.371 34.1924C50.371 33.3447 50.2206 32.7044 49.9199 32.2715C49.6236 31.834 49.1861 31.6152 48.6074 31.6152ZM56.7011 36.8379C57.093 36.8379 57.485 36.7764 57.8769 36.6533V37.8633C57.6992 37.9408 57.469 38.0046 57.1865 38.0547C56.9085 38.1094 56.6191 38.1367 56.3183 38.1367C54.7962 38.1367 54.0351 37.3346 54.0351 35.7305V31.6562H53.0029V30.9453L54.1103 30.3574L54.6572 28.7578H55.6484V30.4395H57.8017V31.6562H55.6484V35.7031C55.6484 36.0905 55.7441 36.3776 55.9355 36.5645C56.1314 36.7467 56.3867 36.8379 56.7011 36.8379ZM64.4736 35.8467C64.4736 36.585 64.2047 37.1523 63.6669 37.5488C63.1292 37.9408 62.359 38.1367 61.3564 38.1367C60.3492 38.1367 59.5403 37.984 58.9296 37.6787V36.291C59.8183 36.7012 60.6454 36.9062 61.4111 36.9062C62.4 36.9062 62.8945 36.6077 62.8945 36.0107C62.8945 35.8193 62.8398 35.6598 62.7304 35.5322C62.621 35.4046 62.441 35.2725 62.1904 35.1357C61.9397 34.999 61.5911 34.8441 61.1445 34.6709C60.274 34.3337 59.6839 33.9964 59.374 33.6592C59.0686 33.3219 58.916 32.8844 58.916 32.3467C58.916 31.6995 59.1757 31.1982 59.6953 30.8428C60.2193 30.4827 60.9303 30.3027 61.8281 30.3027C62.7167 30.3027 63.5576 30.4827 64.3505 30.8428L63.831 32.0527C63.0152 31.7155 62.3294 31.5469 61.7734 31.5469C60.9257 31.5469 60.5019 31.7884 60.5019 32.2715C60.5019 32.5085 60.6113 32.709 60.83 32.873C61.0533 33.0371 61.5364 33.2627 62.2792 33.5498C62.9036 33.7913 63.357 34.0124 63.6396 34.2129C63.9221 34.4134 64.1318 34.6458 64.2685 34.9102C64.4052 35.1699 64.4736 35.4821 64.4736 35.8467Z" fill="white"/>
</svg>
