<svg width="71" height="46" viewBox="0 0 71 46" fill="none" xmlns="http://www.w3.org/2000/svg">
<rect x="0.676392" width="69.8163" height="46" rx="13.5" fill="#F24783"/>
<path d="M17.191 15H13.1529V7.86133H17.191V8.84766H14.3199V10.791H17.0103V11.7676H14.3199V14.0088H17.191V15ZM23.1676 15H22.0152V11.6699C22.0152 11.2565 21.9371 10.9489 21.7808 10.7471C21.6246 10.542 21.3805 10.4395 21.0484 10.4395C20.6057 10.4395 20.2802 10.5843 20.0719 10.874C19.8668 11.1605 19.7642 11.639 19.7642 12.3096V15H18.6168V9.59961H19.5152L19.6764 10.3076H19.7349C19.8847 10.0505 20.1012 9.85189 20.3844 9.71191C20.6708 9.57194 20.9849 9.50195 21.3267 9.50195C22.1568 9.50195 22.707 9.78516 22.9771 10.3516H23.0553C23.2148 10.0846 23.4394 9.8763 23.7291 9.72656C24.0188 9.57682 24.3508 9.50195 24.7252 9.50195C25.3697 9.50195 25.8385 9.66471 26.1314 9.99023C26.4277 10.3158 26.5758 10.8122 26.5758 11.4795V15H25.4283V11.6699C25.4283 11.2565 25.3486 10.9489 25.189 10.7471C25.0328 10.542 24.7887 10.4395 24.4566 10.4395C24.0107 10.4395 23.6835 10.5794 23.4752 10.8594C23.2701 11.1361 23.1676 11.5625 23.1676 12.1387V15ZM32.5963 15.0977C31.9224 15.0977 31.3967 14.8535 31.0191 14.3652C30.6415 13.877 30.4527 13.1917 30.4527 12.3096C30.4527 11.4242 30.6432 10.7357 31.024 10.2441C31.4081 9.74935 31.9387 9.50195 32.6158 9.50195C33.3254 9.50195 33.8658 9.764 34.2369 10.2881H34.2955C34.2402 9.90072 34.2125 9.59473 34.2125 9.37012V7.40234H35.3648V15H34.4664L34.2662 14.292H34.2125C33.8446 14.8291 33.3059 15.0977 32.5963 15.0977ZM32.9039 14.1699C33.3759 14.1699 33.7193 14.0381 33.9342 13.7744C34.149 13.5075 34.2597 13.0762 34.2662 12.4805V12.3193C34.2662 11.639 34.1555 11.1556 33.9342 10.8691C33.7128 10.5827 33.3661 10.4395 32.8941 10.4395C32.4905 10.4395 32.1796 10.6038 31.9615 10.9326C31.7434 11.2581 31.6344 11.7236 31.6344 12.3291C31.6344 12.9281 31.7402 13.3854 31.9517 13.7012C32.1633 14.0137 32.4807 14.1699 32.9039 14.1699ZM41.7955 12.29C41.7955 13.1722 41.5693 13.8607 41.1168 14.3555C40.6643 14.8503 40.0344 15.0977 39.2271 15.0977C38.7226 15.0977 38.2766 14.9837 37.8892 14.7559C37.5019 14.528 37.204 14.2008 36.9957 13.7744C36.7874 13.348 36.6832 12.8532 36.6832 12.29C36.6832 11.4144 36.9078 10.7308 37.357 10.2393C37.8062 9.74772 38.4394 9.50195 39.2564 9.50195C40.0377 9.50195 40.6562 9.75423 41.1119 10.2588C41.5676 10.7601 41.7955 11.4372 41.7955 12.29ZM37.8648 12.29C37.8648 13.5368 38.3254 14.1602 39.2467 14.1602C40.1581 14.1602 40.6139 13.5368 40.6139 12.29C40.6139 11.0563 40.1549 10.4395 39.2369 10.4395C38.7551 10.4395 38.4052 10.599 38.1871 10.918C37.9723 11.237 37.8648 11.6943 37.8648 12.29ZM45.8775 9.50195C46.5514 9.50195 47.0754 9.74609 47.4498 10.2344C47.8274 10.7227 48.0162 11.4079 48.0162 12.29C48.0162 13.1755 47.8258 13.8656 47.4449 14.3604C47.064 14.8519 46.5351 15.0977 45.858 15.0977C45.1744 15.0977 44.6438 14.8519 44.2662 14.3604H44.1881L43.9781 15H43.1187V7.40234H44.2662V9.20898C44.2662 9.34245 44.2597 9.54102 44.2467 9.80469C44.2336 10.0684 44.2239 10.236 44.2174 10.3076H44.2662C44.6308 9.77051 45.1679 9.50195 45.8775 9.50195ZM45.5797 10.4395C45.1174 10.4395 44.7838 10.5762 44.5787 10.8496C44.3769 11.1198 44.2727 11.5739 44.2662 12.2119V12.29C44.2662 12.9476 44.3704 13.4245 44.5787 13.7207C44.787 14.0137 45.1272 14.1602 45.5992 14.1602C46.0061 14.1602 46.3137 13.999 46.5221 13.6768C46.7336 13.3545 46.8394 12.889 46.8394 12.2803C46.8394 11.0531 46.4195 10.4395 45.5797 10.4395ZM52.0885 9.50195C52.3196 9.50195 52.51 9.51823 52.6598 9.55078L52.5474 10.6201C52.3847 10.5811 52.2154 10.5615 52.0396 10.5615C51.5807 10.5615 51.2079 10.7113 50.9215 11.0107C50.6383 11.3102 50.4967 11.6992 50.4967 12.1777V15H49.3492V9.59961H50.2476L50.399 10.5518H50.4576C50.6366 10.2295 50.8694 9.97396 51.1558 9.78516C51.4456 9.59635 51.7564 9.50195 52.0885 9.50195ZM58.4557 12.29C58.4557 13.1722 58.2294 13.8607 57.7769 14.3555C57.3245 14.8503 56.6946 15.0977 55.8873 15.0977C55.3827 15.0977 54.9368 14.9837 54.5494 14.7559C54.162 14.528 53.8642 14.2008 53.6558 13.7744C53.4475 13.348 53.3433 12.8532 53.3433 12.29C53.3433 11.4144 53.568 10.7308 54.0172 10.2393C54.4664 9.74772 55.0995 9.50195 55.9166 9.50195C56.6978 9.50195 57.3163 9.75423 57.7721 10.2588C58.2278 10.7601 58.4557 11.4372 58.4557 12.29ZM54.525 12.29C54.525 13.5368 54.9856 14.1602 55.9068 14.1602C56.8183 14.1602 57.274 13.5368 57.274 12.29C57.274 11.0563 56.815 10.4395 55.8971 10.4395C55.4153 10.4395 55.0654 10.599 54.8473 10.918C54.6324 11.237 54.525 11.6943 54.525 12.29Z" fill="white"/>
<rect x="0.676392" y="19" width="69.8163" height="27" rx="13.5" fill="#582D89"/>
<path d="M8.80135 33.6729H6.08065V32.4561H8.80135V29.667H10.0318V32.4561H12.7594V33.6729H10.0318V36.4482H8.80135V33.6729ZM17.7017 33.7412C17.7017 29.8311 19.2945 27.876 22.4801 27.876C22.9814 27.876 23.4052 27.9147 23.7515 27.9922V29.332C23.4052 29.2318 23.0042 29.1816 22.5484 29.1816C21.4775 29.1816 20.6731 29.4688 20.1353 30.043C19.5976 30.6172 19.3059 31.5378 19.2603 32.8047H19.3424C19.5566 32.4355 19.8573 32.1507 20.2447 31.9502C20.6321 31.7451 21.0878 31.6426 21.6119 31.6426C22.5188 31.6426 23.2252 31.9206 23.731 32.4766C24.2369 33.0326 24.4898 33.7868 24.4898 34.7393C24.4898 35.7874 24.1959 36.6169 23.608 37.2275C23.0247 37.8337 22.2271 38.1367 21.2154 38.1367C20.4999 38.1367 19.8779 37.9658 19.3492 37.624C18.8206 37.2777 18.4127 36.7764 18.1256 36.1201C17.843 35.4593 17.7017 34.6663 17.7017 33.7412ZM21.1881 36.8105C21.7395 36.8105 22.1633 36.6328 22.4596 36.2773C22.7603 35.9219 22.9107 35.4137 22.9107 34.7529C22.9107 34.1787 22.7695 33.7275 22.4869 33.3994C22.2089 33.0713 21.7896 32.9072 21.2291 32.9072C20.8827 32.9072 20.5637 32.9824 20.2721 33.1328C19.9804 33.2786 19.7502 33.4814 19.5816 33.7412C19.413 33.9964 19.3287 34.2585 19.3287 34.5273C19.3287 35.1699 19.5019 35.7122 19.8482 36.1543C20.1991 36.5918 20.6458 36.8105 21.1881 36.8105ZM32.4469 33.0029C32.4469 34.7393 32.1666 36.029 31.606 36.8721C31.0501 37.7152 30.1978 38.1367 29.0494 38.1367C27.9374 38.1367 27.0943 37.7015 26.5201 36.8311C25.9459 35.9606 25.6588 34.6846 25.6588 33.0029C25.6588 31.2393 25.9368 29.9404 26.4928 29.1064C27.0533 28.2679 27.9055 27.8486 29.0494 27.8486C30.1659 27.8486 31.0113 28.2861 31.5855 29.1611C32.1598 30.0361 32.4469 31.3167 32.4469 33.0029ZM27.2857 33.0029C27.2857 34.3656 27.4247 35.3385 27.7027 35.9219C27.9853 36.5052 28.4342 36.7969 29.0494 36.7969C29.6646 36.7969 30.1135 36.5007 30.3961 35.9082C30.6832 35.3158 30.8267 34.3473 30.8267 33.0029C30.8267 31.6631 30.6832 30.6947 30.3961 30.0977C30.1135 29.4961 29.6646 29.1953 29.0494 29.1953C28.4342 29.1953 27.9853 29.4893 27.7027 30.0771C27.4247 30.665 27.2857 31.6403 27.2857 33.0029ZM40.4449 33.0029C40.4449 34.7393 40.1646 36.029 39.6041 36.8721C39.0481 37.7152 38.1959 38.1367 37.0474 38.1367C35.9355 38.1367 35.0924 37.7015 34.5182 36.8311C33.9439 35.9606 33.6568 34.6846 33.6568 33.0029C33.6568 31.2393 33.9348 29.9404 34.4908 29.1064C35.0514 28.2679 35.9036 27.8486 37.0474 27.8486C38.164 27.8486 39.0094 28.2861 39.5836 29.1611C40.1578 30.0361 40.4449 31.3167 40.4449 33.0029ZM35.2838 33.0029C35.2838 34.3656 35.4228 35.3385 35.7008 35.9219C35.9833 36.5052 36.4322 36.7969 37.0474 36.7969C37.6627 36.7969 38.1116 36.5007 38.3941 35.9082C38.6812 35.3158 38.8248 34.3473 38.8248 33.0029C38.8248 31.6631 38.6812 30.6947 38.3941 30.0977C38.1116 29.4961 37.6627 29.1953 37.0474 29.1953C36.4322 29.1953 35.9833 29.4893 35.7008 30.0771C35.4228 30.665 35.2838 31.6403 35.2838 33.0029ZM49.6734 38.1367C48.7164 38.1367 47.9736 37.7926 47.4449 37.1045H47.3492C47.413 37.7425 47.4449 38.1299 47.4449 38.2666V41.3633H45.8385V30.4395H47.1373C47.1737 30.5807 47.2489 30.918 47.3629 31.4512H47.4449C47.9462 30.6855 48.6982 30.3027 49.7008 30.3027C50.6441 30.3027 51.3779 30.6445 51.9019 31.3281C52.4306 32.0117 52.6949 32.971 52.6949 34.2061C52.6949 35.4411 52.426 36.4049 51.8883 37.0977C51.3551 37.7904 50.6168 38.1367 49.6734 38.1367ZM49.2838 31.6152C48.6458 31.6152 48.1786 31.8021 47.8824 32.1758C47.5907 32.5495 47.4449 33.1465 47.4449 33.9668V34.2061C47.4449 35.1266 47.5907 35.7943 47.8824 36.209C48.1741 36.6191 48.6503 36.8242 49.3111 36.8242C49.8671 36.8242 50.2955 36.5964 50.5963 36.1406C50.8971 35.6849 51.0474 35.0355 51.0474 34.1924C51.0474 33.3447 50.8971 32.7044 50.5963 32.2715C50.3001 31.834 49.8626 31.6152 49.2838 31.6152ZM57.3775 36.8379C57.7695 36.8379 58.1614 36.7764 58.5533 36.6533V37.8633C58.3756 37.9408 58.1454 38.0046 57.8629 38.0547C57.5849 38.1094 57.2955 38.1367 56.9947 38.1367C55.4726 38.1367 54.7115 37.3346 54.7115 35.7305V31.6562H53.6793V30.9453L54.7867 30.3574L55.3336 28.7578H56.3248V30.4395H58.4781V31.6562H56.3248V35.7031C56.3248 36.0905 56.4205 36.3776 56.6119 36.5645C56.8079 36.7467 57.0631 36.8379 57.3775 36.8379ZM65.15 35.8467C65.15 36.585 64.8811 37.1523 64.3433 37.5488C63.8056 37.9408 63.0354 38.1367 62.0328 38.1367C61.0256 38.1367 60.2167 37.984 59.606 37.6787V36.291C60.4947 36.7012 61.3219 36.9062 62.0875 36.9062C63.0764 36.9062 63.5709 36.6077 63.5709 36.0107C63.5709 35.8193 63.5162 35.6598 63.4068 35.5322C63.2974 35.4046 63.1174 35.2725 62.8668 35.1357C62.6161 34.999 62.2675 34.8441 61.8209 34.6709C60.9504 34.3337 60.3603 33.9964 60.0504 33.6592C59.745 33.3219 59.5924 32.8844 59.5924 32.3467C59.5924 31.6995 59.8521 31.1982 60.3717 30.8428C60.8958 30.4827 61.6067 30.3027 62.5045 30.3027C63.3932 30.3027 64.234 30.4827 65.0269 30.8428L64.5074 32.0527C63.6917 31.7155 63.0058 31.5469 62.4498 31.5469C61.6021 31.5469 61.1783 31.7884 61.1783 32.2715C61.1783 32.5085 61.2877 32.709 61.5064 32.873C61.7297 33.0371 62.2128 33.2627 62.9557 33.5498C63.58 33.7913 64.0334 34.0124 64.316 34.2129C64.5986 34.4134 64.8082 34.6458 64.9449 34.9102C65.0816 35.1699 65.15 35.4821 65.15 35.8467Z" fill="white"/>
</svg>
