<svg width="63" height="27" viewBox="0 0 63 27" fill="none" xmlns="http://www.w3.org/2000/svg">
<rect x="0.303223" width="62.5627" height="27" rx="13.5" fill="#582D89"/>
<path d="M8.80038 14.6729H6.07968V13.4561H8.80038V10.667H10.0309V13.4561H12.7584V14.6729H10.0309V17.4482H8.80038V14.6729ZM21.0641 12.7588C22.0712 12.7588 22.8687 13.0254 23.4566 13.5586C24.0445 14.0918 24.3385 14.8187 24.3385 15.7393C24.3385 16.8057 24.0035 17.6396 23.3336 18.2412C22.6682 18.8382 21.7203 19.1367 20.4898 19.1367C19.3733 19.1367 18.496 18.9567 17.858 18.5967V17.1406C18.2271 17.3503 18.651 17.512 19.1295 17.626C19.608 17.7399 20.0523 17.7969 20.4625 17.7969C21.1871 17.7969 21.7385 17.6351 22.1168 17.3115C22.495 16.988 22.6842 16.514 22.6842 15.8896C22.6842 14.6956 21.9231 14.0986 20.401 14.0986C20.1868 14.0986 19.9225 14.1214 19.608 14.167C19.2935 14.208 19.0178 14.2559 18.7809 14.3105L18.0631 13.8867L18.4459 9.00586H23.6412V10.4346H19.8609L19.6353 12.9092C19.7949 12.8818 19.9885 12.8499 20.2164 12.8135C20.4488 12.777 20.7314 12.7588 21.0641 12.7588ZM32.4459 14.0029C32.4459 15.7393 32.1656 17.029 31.6051 17.8721C31.0491 18.7152 30.1969 19.1367 29.0484 19.1367C27.9365 19.1367 27.0934 18.7015 26.5191 17.8311C25.9449 16.9606 25.6578 15.6846 25.6578 14.0029C25.6578 12.2393 25.9358 10.9404 26.4918 10.1064C27.0523 9.2679 27.9046 8.84863 29.0484 8.84863C30.165 8.84863 31.0103 9.28613 31.5846 10.1611C32.1588 11.0361 32.4459 12.3167 32.4459 14.0029ZM27.2848 14.0029C27.2848 15.3656 27.4238 16.3385 27.7018 16.9219C27.9843 17.5052 28.4332 17.7969 29.0484 17.7969C29.6637 17.7969 30.1126 17.5007 30.3951 16.9082C30.6822 16.3158 30.8258 15.3473 30.8258 14.0029C30.8258 12.6631 30.6822 11.6947 30.3951 11.0977C30.1126 10.4961 29.6637 10.1953 29.0484 10.1953C28.4332 10.1953 27.9843 10.4893 27.7018 11.0771C27.4238 11.665 27.2848 12.6403 27.2848 14.0029ZM41.6744 19.1367C40.7174 19.1367 39.9745 18.7926 39.4459 18.1045H39.3502C39.414 18.7425 39.4459 19.1299 39.4459 19.2666V22.3633H37.8394V11.4395H39.1383C39.1747 11.5807 39.2499 11.918 39.3639 12.4512H39.4459C39.9472 11.6855 40.6991 11.3027 41.7018 11.3027C42.6451 11.3027 43.3788 11.6445 43.9029 12.3281C44.4316 13.0117 44.6959 13.971 44.6959 15.2061C44.6959 16.4411 44.427 17.4049 43.8893 18.0977C43.356 18.7904 42.6178 19.1367 41.6744 19.1367ZM41.2848 12.6152C40.6467 12.6152 40.1796 12.8021 39.8834 13.1758C39.5917 13.5495 39.4459 14.1465 39.4459 14.9668V15.2061C39.4459 16.1266 39.5917 16.7943 39.8834 17.209C40.1751 17.6191 40.6513 17.8242 41.3121 17.8242C41.8681 17.8242 42.2965 17.5964 42.5973 17.1406C42.898 16.6849 43.0484 16.0355 43.0484 15.1924C43.0484 14.3447 42.898 13.7044 42.5973 13.2715C42.301 12.834 41.8635 12.6152 41.2848 12.6152ZM49.3785 17.8379C49.7704 17.8379 50.1624 17.7764 50.5543 17.6533V18.8633C50.3766 18.9408 50.1464 19.0046 49.8639 19.0547C49.5859 19.1094 49.2965 19.1367 48.9957 19.1367C47.4736 19.1367 46.7125 18.3346 46.7125 16.7305V12.6562H45.6803V11.9453L46.7877 11.3574L47.3346 9.75781H48.3258V11.4395H50.4791V12.6562H48.3258V16.7031C48.3258 17.0905 48.4215 17.3776 48.6129 17.5645C48.8088 17.7467 49.0641 17.8379 49.3785 17.8379ZM57.151 16.8467C57.151 17.585 56.8821 18.1523 56.3443 18.5488C55.8066 18.9408 55.0364 19.1367 54.0338 19.1367C53.0266 19.1367 52.2177 18.984 51.607 18.6787V17.291C52.4957 17.7012 53.3228 17.9062 54.0885 17.9062C55.0774 17.9062 55.5719 17.6077 55.5719 17.0107C55.5719 16.8193 55.5172 16.6598 55.4078 16.5322C55.2984 16.4046 55.1184 16.2725 54.8678 16.1357C54.6171 15.999 54.2685 15.8441 53.8219 15.6709C52.9514 15.3337 52.3613 14.9964 52.0514 14.6592C51.746 14.3219 51.5934 13.8844 51.5934 13.3467C51.5934 12.6995 51.8531 12.1982 52.3727 11.8428C52.8967 11.4827 53.6077 11.3027 54.5055 11.3027C55.3941 11.3027 56.235 11.4827 57.0279 11.8428L56.5084 13.0527C55.6926 12.7155 55.0068 12.5469 54.4508 12.5469C53.6031 12.5469 53.1793 12.7884 53.1793 13.2715C53.1793 13.5085 53.2887 13.709 53.5074 13.873C53.7307 14.0371 54.2138 14.2627 54.9566 14.5498C55.581 14.7913 56.0344 15.0124 56.317 15.2129C56.5995 15.4134 56.8092 15.6458 56.9459 15.9102C57.0826 16.1699 57.151 16.4821 57.151 16.8467Z" fill="white"/>
</svg>
